<svg width="20" height="20" viewBox="0 0 20 20" fill="none" xmlns="http://www.w3.org/2000/svg">
<g id="Frame">
<g id="Group">
<g id="Group_2">
<path id="Vector" fill-rule="evenodd" clip-rule="evenodd" d="M10.0003 1.0415C8.95051 1.0415 7.94369 1.45854 7.20136 2.20087C6.45903 2.9432 6.04199 3.95002 6.04199 4.99984C6.04199 6.04965 6.45903 7.05647 7.20136 7.7988C7.94369 8.54113 8.95051 8.95817 10.0003 8.95817C11.0501 8.95817 12.057 8.54113 12.7993 7.7988C13.5416 7.05647 13.9587 6.04965 13.9587 4.99984C13.9587 3.95002 13.5416 2.9432 12.7993 2.20087C12.057 1.45854 11.0501 1.0415 10.0003 1.0415ZM7.29199 4.99984C7.29199 4.28154 7.57733 3.59267 8.08525 3.08476C8.59316 2.57685 9.28203 2.2915 10.0003 2.2915C10.7186 2.2915 11.4075 2.57685 11.9154 3.08476C12.4233 3.59267 12.7087 4.28154 12.7087 4.99984C12.7087 5.71813 12.4233 6.40701 11.9154 6.91492C11.4075 7.42283 10.7186 7.70817 10.0003 7.70817C9.28203 7.70817 8.59316 7.42283 8.08525 6.91492C7.57733 6.40701 7.29199 5.71813 7.29199 4.99984ZM7.50033 10.2082C6.98051 10.2082 6.46578 10.3106 5.98554 10.5095C5.50529 10.7084 5.06893 11 4.70136 11.3675C4.3338 11.7351 4.04223 12.1715 3.8433 12.6517C3.64438 13.132 3.54199 13.6467 3.54199 14.1665C3.54199 14.6863 3.64438 15.201 3.8433 15.6813C4.04223 16.1615 4.3338 16.5979 4.70136 16.9655C5.06893 17.333 5.50529 17.6246 5.98554 17.8235C6.46578 18.0225 6.98051 18.1248 7.50033 18.1248H12.5003C13.0201 18.1248 13.5349 18.0225 14.0151 17.8235C14.4954 17.6246 14.9317 17.333 15.2993 16.9655C15.6669 16.5979 15.9584 16.1615 16.1574 15.6813C16.3563 15.201 16.4587 14.6863 16.4587 14.1665C16.4587 13.6467 16.3563 13.132 16.1574 12.6517C15.9584 12.1715 15.6669 11.7351 15.2993 11.3675C14.9317 11 14.4954 10.7084 14.0151 10.5095C13.5349 10.3106 13.0201 10.2082 12.5003 10.2082H7.50033ZM4.79199 14.1665C4.79199 13.4482 5.07733 12.7593 5.58524 12.2514C6.09316 11.7435 6.78203 11.4582 7.50033 11.4582H12.5003C13.2186 11.4582 13.9075 11.7435 14.4154 12.2514C14.9233 12.7593 15.2087 13.4482 15.2087 14.1665C15.2087 14.8848 14.9233 15.5737 14.4154 16.0816C13.9075 16.5895 13.2186 16.8748 12.5003 16.8748H7.50033C6.78203 16.8748 6.09316 16.5895 5.58524 16.0816C5.07733 15.5737 4.79199 14.8848 4.79199 14.1665Z" fill="#1B9AAA"/>
</g>
</g>
</g>
</svg>
