<svg width="30" height="30" viewBox="0 0 30 30" fill="none" xmlns="http://www.w3.org/2000/svg">
<path d="M15 7.5C14.6685 7.5 14.3505 7.3683 14.1161 7.13388C13.8817 6.89946 13.75 6.58152 13.75 6.25V3.75C13.75 3.41848 13.8817 3.10054 14.1161 2.86612C14.3505 2.6317 14.6685 2.5 15 2.5C15.3315 2.5 15.6495 2.6317 15.8839 2.86612C16.1183 3.10054 16.25 3.41848 16.25 3.75V6.25C16.25 6.58152 16.1183 6.89946 15.8839 7.13388C15.6495 7.3683 15.3315 7.5 15 7.5Z" fill="#C4C4C4"/>
<path d="M21.7999 23.7502H8.14989C7.45918 23.7505 6.78479 23.5403 6.21647 23.1478C5.64816 22.7552 5.21288 22.1989 4.96857 21.5528C4.72426 20.9068 4.68251 20.2016 4.84889 19.5313C5.01526 18.8609 5.38186 18.2571 5.89989 17.8002L6.24989 17.5002C6.67446 17.1156 6.96009 16.6014 7.06239 16.0377L7.89989 11.0377C8.16103 9.34648 9.02216 7.80571 10.3258 6.69713C11.6295 5.58854 13.2887 4.9862 14.9999 5.00024C16.6934 4.99586 18.333 5.59482 19.625 6.68975C20.9169 7.78467 21.7766 9.30395 22.0499 10.9752L22.8874 15.9752C22.9748 16.5733 23.2824 17.1172 23.7499 17.5002L24.0499 17.7627C24.5555 18.2281 24.9107 18.8338 25.0698 19.5023C25.229 20.1708 25.1849 20.8716 24.9431 21.5149C24.7014 22.1582 24.2731 22.7146 23.7131 23.1129C23.1531 23.5111 22.4869 23.7331 21.7999 23.7502ZM14.9999 7.50024C13.8981 7.49762 12.8313 7.88738 11.9907 8.59972C11.1501 9.31205 10.5906 10.3004 10.4124 11.3877L9.57489 16.3877C9.38586 17.5143 8.8168 18.5421 7.96239 19.3002L7.49989 19.6752C7.39334 19.7746 7.31177 19.8977 7.26181 20.0346C7.21185 20.1714 7.19491 20.3181 7.21239 20.4627C7.23707 20.6804 7.34136 20.8812 7.5052 21.0266C7.66904 21.172 7.88086 21.2516 8.09989 21.2502H21.7999C22.0242 21.2513 22.2408 21.1686 22.4072 21.0183C22.5737 20.868 22.6781 20.661 22.6999 20.4377C22.7255 20.2841 22.7114 20.1265 22.6589 19.98C22.6064 19.8334 22.5172 19.7026 22.3999 19.6002L22.0999 19.3377C21.2052 18.5753 20.6077 17.5219 20.4124 16.3627L19.5874 11.3627C19.4039 10.28 18.8421 9.2975 18.002 8.59019C17.1619 7.88287 16.0981 7.49664 14.9999 7.50024Z" fill="#C4C4C4"/>
<path d="M15 27.5001C14.0054 27.5001 13.0516 27.1051 12.3483 26.4018C11.6451 25.6985 11.25 24.7447 11.25 23.7501C11.2509 23.0867 11.4277 22.4354 11.7625 21.8626C11.8345 21.7033 11.9392 21.5608 12.0698 21.4444C12.2003 21.328 12.3539 21.2403 12.5204 21.187C12.687 21.1336 12.8629 21.1159 13.0368 21.1348C13.2107 21.1537 13.3786 21.2089 13.5298 21.2968C13.6811 21.3847 13.8121 21.5034 13.9146 21.6451C14.0171 21.7869 14.0886 21.9485 14.1247 22.1197C14.1608 22.2908 14.1605 22.4676 14.124 22.6387C14.0874 22.8097 14.0154 22.9712 13.9125 23.1126C13.8024 23.3068 13.7463 23.5269 13.75 23.7501C13.75 24.0817 13.8817 24.3996 14.1161 24.634C14.3505 24.8685 14.6685 25.0001 15 25.0001C15.3315 25.0001 15.6495 24.8685 15.8839 24.634C16.1183 24.3996 16.25 24.0817 16.25 23.7501C16.2493 23.5354 16.1934 23.3245 16.0875 23.1376C15.9846 22.9962 15.9126 22.8347 15.876 22.6637C15.8395 22.4926 15.8392 22.3158 15.8753 22.1447C15.9114 21.9735 15.9829 21.8119 16.0854 21.6701C16.1879 21.5284 16.3189 21.4097 16.4702 21.3218C16.6214 21.2339 16.7893 21.1787 16.9632 21.1598C17.1371 21.1409 17.313 21.1586 17.4796 21.212C17.6461 21.2653 17.7997 21.353 17.9302 21.4694C18.0608 21.5858 18.1655 21.7283 18.2375 21.8876C18.568 22.4531 18.7447 23.0952 18.75 23.7501C18.75 24.7447 18.3549 25.6985 17.6517 26.4018C16.9484 27.1051 15.9946 27.5001 15 27.5001Z" fill="#C4C4C4"/>
</svg>
