<svg width="18" height="18" viewBox="0 0 18 18" fill="none" xmlns="http://www.w3.org/2000/svg">
<g id="Frame">
<g id="Group">
<g id="Layer 2">
<path id="Vector" d="M3.61596 10.0547C3.52078 10.0545 3.42806 10.0245 3.35091 9.96876C3.27375 9.91304 3.21607 9.83447 3.18602 9.74417C3.16455 9.68584 3.15513 9.62377 3.15832 9.56169C3.16152 9.49962 3.17727 9.43884 3.20462 9.38303C3.23197 9.32722 3.27035 9.27753 3.31744 9.23696C3.36453 9.1964 3.41936 9.16581 3.47861 9.14703C5.32344 8.56765 7.09638 7.78034 8.76328 6.80028C10.6966 5.66731 12.4732 4.28614 14.0479 2.69198C14.1328 2.61287 14.2451 2.5698 14.3612 2.57185C14.4772 2.57389 14.5879 2.6209 14.6699 2.70295C14.752 2.78501 14.799 2.89571 14.801 3.01173C14.8031 3.12775 14.76 3.24004 14.6809 3.32494C13.0518 4.97318 11.2151 6.40239 9.2171 7.57656C7.49223 8.58802 5.65955 9.40321 3.7533 10.0069L3.61596 10.0547Z" fill="#1B9AAA"/>
<path id="Vector_2" d="M14.3648 5.87459C14.2465 5.87304 14.1334 5.82536 14.0498 5.74171C13.9661 5.65805 13.9184 5.54503 13.9169 5.42674V3.48604H11.9762C11.8574 3.48604 11.7435 3.43885 11.6595 3.35487C11.5755 3.27088 11.5284 3.15696 11.5284 3.03819C11.5284 2.91941 11.5755 2.80549 11.6595 2.72151C11.7435 2.63752 11.8574 2.59033 11.9762 2.59033H14.3648C14.4831 2.59188 14.5961 2.63956 14.6797 2.72322C14.7634 2.80687 14.8111 2.91989 14.8126 3.03819V5.42674C14.8111 5.54503 14.7634 5.65805 14.6797 5.74171C14.5961 5.82536 14.4831 5.87304 14.3648 5.87459ZM14.6633 15.4288H12.8719C12.6739 15.4288 12.4841 15.3501 12.3441 15.2102C12.2041 15.0702 12.1255 14.8803 12.1255 14.6824V8.11385C12.1255 7.91589 12.2041 7.72604 12.3441 7.58605C12.4841 7.44607 12.6739 7.36743 12.8719 7.36743H14.6633C14.8613 7.36743 15.0511 7.44607 15.1911 7.58605C15.3311 7.72604 15.4097 7.91589 15.4097 8.11385V14.6824C15.4097 14.8803 15.3311 15.0702 15.1911 15.2102C15.0511 15.3501 14.8613 15.4288 14.6633 15.4288ZM13.0212 14.5331H14.514V8.26314H13.0212V14.5331ZM9.88622 15.4288H8.09481C7.89685 15.4288 7.70699 15.3501 7.56701 15.2102C7.42703 15.0702 7.34839 14.8803 7.34839 14.6824V10.5024C7.34839 10.3044 7.42703 10.1146 7.56701 9.9746C7.70699 9.83462 7.89685 9.75598 8.09481 9.75598H9.88622C10.0842 9.75598 10.274 9.83462 10.414 9.9746C10.554 10.1146 10.6326 10.3044 10.6326 10.5024V14.6824C10.6326 14.8803 10.554 15.0702 10.414 15.2102C10.274 15.3501 10.0842 15.4288 9.88622 15.4288ZM8.2441 14.5331H9.73694V10.6517H8.2441V14.5331ZM5.10912 15.4288H3.31771C3.11975 15.4288 2.92989 15.3501 2.78991 15.2102C2.64993 15.0702 2.57129 14.8803 2.57129 14.6824V11.6967C2.57129 11.4987 2.64993 11.3089 2.78991 11.1689C2.92989 11.0289 3.11975 10.9503 3.31771 10.9503H5.10912C5.30709 10.9503 5.49694 11.0289 5.63692 11.1689C5.7769 11.3089 5.85555 11.4987 5.85555 11.6967V14.6824C5.85555 14.8803 5.7769 15.0702 5.63692 15.2102C5.49694 15.3501 5.30709 15.4288 5.10912 15.4288ZM3.467 14.5331H4.95984V11.846H3.467V14.5331Z" fill="#1B9AAA"/>
</g>
</g>
</g>
</svg>
