<svg clip-rule="evenodd" fill-rule="evenodd" height="512" stroke-linejoin="round" stroke-miterlimit="2" viewBox="0 0 32 32" width="512" xmlns="http://www.w3.org/2000/svg"><path d="m15.501 2.002c-3.863 0-7 3.137-7 7 0 3.864 3.137 7 7 7s7-3.136 7-7c0-3.863-3.137-7-7-7zm0 2c2.76 0 5 2.241 5 5 0 2.76-2.24 5-5 5s-5-2.24-5-5c0-2.759 2.24-5 5-5z"/><path d="m3.501 28.002h12.499c.552 0 1 .448 1 1s-.448 1-1 1h-13.499c-.552 0-1-.448-1-1 0 0 0-.824 0-2 0-4.97 4.029-9 9-9h5.499c.552 0 1 .448 1 1s-.448 1-1 1h-5.499c-3.866 0-7 3.134-7 7z"/><path d="m24.002 18.002c-3.587 0-6.499 2.912-6.499 6.499s2.912 6.499 6.499 6.499 6.499-2.912 6.499-6.499-2.912-6.499-6.499-6.499zm0 2c2.483 0 4.499 2.016 4.499 4.499s-2.016 4.499-4.499 4.499-4.499-2.016-4.499-4.499 2.016-4.499 4.499-4.499z"/><path d="m27.177 19.901-7.775 7.775c-.39.39-.39 1.024 0 1.414.39.391 1.024.391 1.414 0l7.775-7.775c.391-.39.391-1.024 0-1.414-.39-.39-1.024-.39-1.414 0z"/></svg>