<svg width="20" height="20" viewBox="0 0 20 20" fill="none" xmlns="http://www.w3.org/2000/svg">
<g id="Frame">
<g id="Group">
<path id="Layer 2" d="M11.9749 18.3333C11.2493 18.3358 10.5284 18.2175 9.84159 17.9833C8.02423 17.4016 6.34922 16.4448 4.92493 15.175C3.67914 13.8362 2.72058 12.2565 2.10826 10.5333C1.68507 9.43241 1.56422 8.23833 1.75826 7.07497L1.92493 6.04997C2.01909 5.45544 2.23775 4.88749 2.56659 4.3833L3.84993 2.44997C3.99949 2.22572 4.20121 2.04109 4.43779 1.91191C4.67437 1.78274 4.93875 1.71287 5.20826 1.7083C5.47757 1.70323 5.74409 1.7635 5.98501 1.88396C6.22593 2.00442 6.43407 2.18148 6.59159 2.39997L8.89993 5.6083C9.12694 5.92691 9.23464 6.31523 9.20417 6.70525C9.1737 7.09527 9.007 7.46215 8.73326 7.74164L7.06659 9.4083V9.5333C7.17867 10.4009 7.5986 11.1993 8.24993 11.7833C8.85203 12.4007 9.64473 12.7971 10.4999 12.9083H10.6249L12.2916 11.2416C12.5721 10.9692 12.9395 10.804 13.3295 10.775C13.7195 10.7461 14.1073 10.8552 14.4249 11.0833L17.6333 13.3916C17.8617 13.5538 18.0456 13.7708 18.1679 14.0228C18.2903 14.2748 18.3471 14.5535 18.3333 14.8333C18.3274 15.1014 18.2569 15.3641 18.1277 15.5991C17.9986 15.8341 17.8147 16.0345 17.5916 16.1833L15.7166 17.4333C15.1807 17.7944 14.5666 18.023 13.9249 18.1L12.7999 18.2416C12.527 18.2888 12.2515 18.3195 11.9749 18.3333ZM5.23326 3.37497L3.94993 5.29997C3.75732 5.59559 3.62689 5.92733 3.56659 6.27497L3.39993 7.29997C3.25873 8.17161 3.34779 9.06502 3.65826 9.89164C4.18678 11.3925 5.01463 12.7703 6.09159 13.9416C7.34023 15.0408 8.8049 15.8669 10.3916 16.3666C11.1016 16.6062 11.8569 16.6803 12.5999 16.5833L13.7249 16.45C14.1057 16.3974 14.4701 16.2608 14.7916 16.05L16.6666 14.8L13.4583 12.5L11.7916 14.125C11.5985 14.3131 11.3627 14.4515 11.1043 14.5284C10.846 14.6053 10.5728 14.6185 10.3083 14.5666H10.1833C9.00557 14.389 7.91756 13.8333 7.08326 12.9833C6.21321 12.1732 5.64334 11.0922 5.46659 9.91664V9.79997C5.41048 9.53162 5.42143 9.25358 5.49847 8.99047C5.57551 8.72737 5.71627 8.48733 5.90826 8.29164L7.57493 6.62497L5.23326 3.37497Z" fill="#1B9AAA"/>
</g>
</g>
</svg>
