<svg width="14" height="14" viewBox="0 0 14 14" fill="none" xmlns="http://www.w3.org/2000/svg">
<g id="Frame" clip-path="url(#clip0_988_140692)">
<g id="Group">
<path id="Vector" d="M12.3261 3.34822H10.8652L10.0587 2.13083C9.75436 1.6743 9.22175 1.40039 8.67392 1.40039H5.32609C4.77827 1.40039 4.24566 1.6743 3.94131 2.13083L3.13479 3.34822H1.67392C1.45392 3.34758 1.23597 3.39044 1.03259 3.47434C0.829215 3.55824 0.644431 3.68151 0.488868 3.83708C0.333304 3.99264 0.210028 4.17742 0.126132 4.3808C0.0422346 4.58417 -0.000628592 4.80213 6.96553e-06 5.02213V10.9265C-0.000628592 11.1465 0.0422346 11.3644 0.126132 11.5678C0.210028 11.7712 0.333304 11.956 0.488868 12.1115C0.644431 12.2671 0.829215 12.3904 1.03259 12.4743C1.23597 12.5582 1.45392 12.601 1.67392 12.6004H12.3261C12.5461 12.601 12.764 12.5582 12.9674 12.4743C13.1708 12.3904 13.3556 12.2671 13.5111 12.1115C13.6667 11.956 13.79 11.7712 13.8739 11.5678C13.9578 11.3644 14.0006 11.1465 14 10.9265V5.02213C14.0006 4.80213 13.9578 4.58417 13.8739 4.3808C13.79 4.17742 13.6667 3.99264 13.5111 3.83708C13.3556 3.68151 13.1708 3.55824 12.9674 3.47434C12.764 3.39044 12.5461 3.34758 12.3261 3.34822ZM7.00001 11.2308C4.91522 11.2308 3.22609 9.54169 3.22609 7.45691C3.22609 5.37213 4.91522 3.69822 7.00001 3.69822C9.08479 3.69822 10.7739 5.38735 10.7739 7.47213C10.7739 9.54169 9.08479 11.2308 7.00001 11.2308ZM12.1131 5.70691H11.4435C11.1696 5.69169 10.9565 5.46343 10.9717 5.18952C10.987 4.93082 11.1848 4.733 11.4435 4.71778H12.0522C12.3261 4.70256 12.5544 4.91561 12.5696 5.18952C12.5848 5.46343 12.387 5.69169 12.1131 5.70691Z" fill="white"/>
<path id="Vector_2" d="M6.9999 5.37207C5.84338 5.37207 4.8999 6.31555 4.8999 7.47207C4.8999 8.62859 5.84338 9.55685 6.9999 9.55685C8.15642 9.55685 9.0999 8.61338 9.0999 7.45685C9.0999 6.30033 8.15642 5.37207 6.9999 5.37207Z" fill="white"/>
</g>
</g>
<defs>
<clipPath id="clip0_988_140692">
<rect width="14" height="14" fill="white"/>
</clipPath>
</defs>
</svg>
