<svg width="26" height="26" viewBox="0 0 26 26" fill="none" xmlns="http://www.w3.org/2000/svg">
<path d="M7.66245 25.8875C7.32312 25.8885 6.98713 25.8205 6.67495 25.6875C6.29075 25.5215 5.95437 25.2617 5.69666 24.9319C5.43895 24.6021 5.26816 24.2129 5.19995 23.8L4.78745 21.3C4.01524 20.8911 3.31788 20.3543 2.72495 19.7125C-0.225049 16.2875 -0.225049 7.2125 2.72495 3.7875C4.51245 1.75 8.34995 0.5 13 0.5C17.65 0.5 21.4874 1.75 23.275 3.7875C26.225 7.2125 26.225 16.2875 23.275 19.7125C21.1374 22.2125 16.4375 23 12.775 22.9875L9.02495 25.4875C8.62087 25.7538 8.14636 25.8931 7.66245 25.8875ZM13 3C9.24995 3 5.87495 3.975 4.61245 5.425C2.47495 7.925 2.47495 15.5875 4.61245 18.075C5.00005 18.4765 5.45213 18.8103 5.94995 19.0625C6.28435 19.2504 6.57102 19.5128 6.78778 19.8292C7.00454 20.1457 7.14557 20.5078 7.19995 20.8875L7.61245 23.3875L11.3625 20.8875C11.7906 20.6246 12.2852 20.4901 12.7875 20.5C16.6625 20.5 20.1 19.5625 21.375 18.0875C23.525 15.5875 23.525 7.925 21.375 5.4375C20.125 3.975 16.75 3 13 3Z" fill="#C4C4C4"/>
<path d="M8 13.3125C8.86295 13.3125 9.5625 12.6129 9.5625 11.75C9.5625 10.8871 8.86295 10.1875 8 10.1875C7.13706 10.1875 6.4375 10.8871 6.4375 11.75C6.4375 12.6129 7.13706 13.3125 8 13.3125Z" fill="#C4C4C4"/>
<path d="M13 13.3125C13.8629 13.3125 14.5625 12.6129 14.5625 11.75C14.5625 10.8871 13.8629 10.1875 13 10.1875C12.1371 10.1875 11.4375 10.8871 11.4375 11.75C11.4375 12.6129 12.1371 13.3125 13 13.3125Z" fill="#C4C4C4"/>
<path d="M18 13.3125C18.8629 13.3125 19.5625 12.6129 19.5625 11.75C19.5625 10.8871 18.8629 10.1875 18 10.1875C17.1371 10.1875 16.4375 10.8871 16.4375 11.75C16.4375 12.6129 17.1371 13.3125 18 13.3125Z" fill="#C4C4C4"/>
</svg>
