<svg width="16" height="15" viewBox="0 0 16 15" fill="none" xmlns="http://www.w3.org/2000/svg">
<path d="M4.80029 5.30078C4.80029 5.16817 4.85297 5.041 4.94674 4.94723C5.04051 4.85346 5.16768 4.80078 5.30029 4.80078H10.6336C10.7662 4.80078 10.8934 4.85346 10.9872 4.94723C11.0809 5.041 11.1336 5.16817 11.1336 5.30078C11.1336 5.43339 11.0809 5.56057 10.9872 5.65433C10.8934 5.7481 10.7662 5.80078 10.6336 5.80078H5.30029C5.16768 5.80078 5.04051 5.7481 4.94674 5.65433C4.85297 5.56057 4.80029 5.43339 4.80029 5.30078ZM4.80029 8.30078C4.80029 8.16817 4.85297 8.041 4.94674 7.94723C5.04051 7.85346 5.16768 7.80078 5.30029 7.80078H10.6336C10.7662 7.80078 10.8934 7.85346 10.9872 7.94723C11.0809 8.041 11.1336 8.16817 11.1336 8.30078C11.1336 8.43339 11.0809 8.56057 10.9872 8.65433C10.8934 8.7481 10.7662 8.80078 10.6336 8.80078H5.30029C5.16768 8.80078 5.04051 8.7481 4.94674 8.65433C4.85297 8.56057 4.80029 8.43339 4.80029 8.30078Z" fill="#979C9E"/>
<path fill-rule="evenodd" clip-rule="evenodd" d="M6.61096 0.800781H9.32296C10.237 0.800781 10.9543 0.800781 11.5303 0.847448C12.117 0.896115 12.6016 0.994781 13.0403 1.21878C13.7616 1.58631 14.3481 2.17277 14.7156 2.89411C14.9396 3.33278 15.0383 3.81745 15.0863 4.40411C15.1336 4.98011 15.1336 5.69745 15.1336 6.61145V7.52145C15.1336 8.55411 15.1336 9.18345 14.979 9.71278C14.7982 10.3293 14.4654 10.8905 14.011 11.3449C13.5567 11.7992 12.9955 12.132 12.379 12.3128C11.8496 12.4674 11.2203 12.4674 10.1876 12.4674H9.68363C9.10567 12.4713 8.54272 12.6518 8.07029 12.9848L8.03696 13.0081L6.29696 14.2514C5.29363 14.9674 3.97496 13.9328 4.43363 12.7888C4.44794 12.7532 4.45329 12.7146 4.4492 12.6765C4.44511 12.6384 4.43171 12.6018 4.41018 12.5701C4.38864 12.5383 4.35964 12.5124 4.32571 12.4945C4.29179 12.4766 4.25398 12.4673 4.21563 12.4674H3.81496C3.01542 12.4674 2.24863 12.1498 1.68327 11.5845C1.11791 11.0191 0.800293 10.2523 0.800293 9.45278V6.61145C0.800293 5.69745 0.800293 4.98011 0.84696 4.40411C0.895626 3.81745 0.994293 3.33278 1.21829 2.89411C1.58582 2.17277 2.17228 1.58631 2.89363 1.21878C3.33229 0.994781 3.81696 0.896115 4.40363 0.848115C4.97963 0.800781 5.69696 0.800781 6.61096 0.800781ZM4.48496 1.84478C3.96029 1.88745 3.62163 1.97011 3.34763 2.10945C2.81426 2.38113 2.38064 2.81475 2.10896 3.34811C1.96896 3.62211 1.88696 3.96078 1.84429 4.48545C1.80096 5.01611 1.80029 5.69211 1.80029 6.63411V9.45278C1.80029 9.9871 2.01255 10.4995 2.39038 10.8774C2.57745 11.0644 2.79955 11.2128 3.04398 11.3141C3.28841 11.4153 3.55039 11.4674 3.81496 11.4674H4.21563C4.41741 11.4673 4.61616 11.5166 4.79446 11.6111C4.97276 11.7055 5.12517 11.8423 5.23835 12.0094C5.35152 12.1764 5.422 12.3687 5.4436 12.5693C5.46521 12.7699 5.43729 12.9728 5.36229 13.1601C5.27496 13.3774 5.52496 13.5734 5.71563 13.4374L7.49363 12.1674C8.13313 11.7167 8.89525 11.4724 9.67763 11.4674H10.0896C11.251 11.4674 11.7243 11.4621 12.0976 11.3528C12.5532 11.2192 12.9679 10.9732 13.3036 10.6375C13.6394 10.3017 13.8853 9.88703 14.019 9.43145C14.1283 9.05811 14.1336 8.58478 14.1336 7.42345V6.63411C14.1336 5.69211 14.1336 5.01611 14.0896 4.48545C14.047 3.96078 13.9643 3.62211 13.825 3.34811C13.5535 2.81485 13.1201 2.38124 12.587 2.10945C12.3123 1.96945 11.9736 1.88745 11.449 1.84478C10.9183 1.80145 10.2423 1.80078 9.30029 1.80078H6.63363C5.69163 1.80078 5.01563 1.80078 4.48496 1.84478Z" fill="#979C9E"/>
</svg>
