<svg width="20" height="20" viewBox="0 0 20 20" fill="none" xmlns="http://www.w3.org/2000/svg">
<g id="Frame">
<g id="Group">
<g id="Group_2">
<path id="Vector" fill-rule="evenodd" clip-rule="evenodd" d="M13.0167 7.8374C13.2675 8.0874 13.2675 8.49324 13.0167 8.74407L9.59836 12.1624C9.34836 12.4124 8.94253 12.4124 8.6917 12.1624L6.98336 10.4532C6.9187 10.395 6.86656 10.3241 6.83013 10.2451C6.7937 10.166 6.77374 10.0804 6.77146 9.99337C6.76918 9.90635 6.78463 9.81978 6.81686 9.73892C6.8491 9.65807 6.89745 9.58461 6.95897 9.52303C7.02049 9.46145 7.0939 9.41304 7.17473 9.38073C7.25556 9.34842 7.34212 9.33289 7.42914 9.33509C7.51616 9.33729 7.60182 9.35718 7.68091 9.39353C7.76 9.42989 7.83087 9.48196 7.8892 9.54657L9.14503 10.8024L12.1109 7.8374C12.3609 7.5874 12.7667 7.5874 13.0175 7.8374H13.0167Z" fill="#1B9AAA"/>
<path id="Vector_2" fill-rule="evenodd" clip-rule="evenodd" d="M10.0001 2.94817C8.12986 2.94817 6.33624 3.69111 5.0138 5.01356C3.69136 6.336 2.94841 8.12962 2.94841 9.99984C2.94841 11.8701 3.69136 13.6637 5.0138 14.9861C6.33624 16.3086 8.12986 17.0515 10.0001 17.0515C11.8703 17.0515 13.6639 16.3086 14.9864 14.9861C16.3088 13.6637 17.0517 11.8701 17.0517 9.99984C17.0517 8.12962 16.3088 6.336 14.9864 5.01356C13.6639 3.69111 11.8703 2.94817 10.0001 2.94817ZM1.66675 9.99984C1.66675 5.39734 5.39758 1.6665 10.0001 1.6665C14.6026 1.6665 18.3334 5.39734 18.3334 9.99984C18.3334 14.6023 14.6026 18.3332 10.0001 18.3332C5.39758 18.3332 1.66675 14.6023 1.66675 9.99984Z" fill="#1B9AAA"/>
</g>
</g>
</g>
</svg>
