<svg width="16" height="16" viewBox="0 0 16 16" fill="none" xmlns="http://www.w3.org/2000/svg">
<circle cx="8" cy="8" r="7.5" transform="matrix(1 0 0 -1 0 16)" stroke="#979C9E"/>
<path d="M7.99663 12.8867C7.88103 12.8846 7.77079 12.8376 7.68922 12.7556L5.46854 10.5333C5.42155 10.4935 5.3833 10.4445 5.35622 10.3892C5.32914 10.334 5.3138 10.2737 5.31119 10.2122C5.30858 10.1507 5.31875 10.0894 5.34104 10.032C5.36334 9.97468 5.39729 9.92257 5.44075 9.87899C5.48421 9.83542 5.53622 9.80133 5.59352 9.77888C5.65082 9.75643 5.71215 9.7461 5.77364 9.74855C5.83513 9.75099 5.89544 9.76616 5.95077 9.7931C6.0061 9.82003 6.05525 9.85815 6.0951 9.90504L7.55484 11.3648L7.5582 3.55879C7.5582 3.44073 7.6051 3.32751 7.68858 3.24402C7.77206 3.16054 7.88529 3.11364 8.00335 3.11364C8.12141 3.11364 8.23463 3.16054 8.31811 3.24402C8.40159 3.32751 8.44849 3.44073 8.44849 3.55879L8.44345 11.3732L9.90991 9.90504C9.99424 9.82662 10.1057 9.78394 10.2208 9.78596C10.336 9.78798 10.4458 9.83453 10.5274 9.91585C10.6089 9.99717 10.6558 10.1069 10.6581 10.2221C10.6604 10.3372 10.618 10.4487 10.5398 10.5333L8.31915 12.7556C8.27695 12.798 8.22664 12.8315 8.17123 12.854C8.11581 12.8765 8.05643 12.8876 7.99663 12.8867Z" fill="#979C9E"/>
</svg>
