<svg width="35" height="35" viewBox="0 0 35 35" fill="none" xmlns="http://www.w3.org/2000/svg">
<circle cx="17.5" cy="17.5" r="17.5" fill="#F3F5F6"/>
<g clip-path="url(#clip0_7_25)">
<path d="M20.5625 17.5H23.9375C25.0748 17.5 26 16.5748 26 15.4375V12.0625C26 10.9252 25.0748 10 23.9375 10H20.5625C19.4252 10 18.5 10.9252 18.5 12.0625V15.4375C18.5 16.5748 19.4252 17.5 20.5625 17.5ZM23.9375 11C24.5234 11 25 11.4766 25 12.0625V15.4375C25 16.0234 24.5234 16.5 23.9375 16.5H20.5625C19.9766 16.5 19.5 16.0234 19.5 15.4375V12.0625C19.5 11.4766 19.9766 11 20.5625 11H23.9375ZM12.0625 17.5H15.4375C16.5748 17.5 17.5 16.5748 17.5 15.4375V12.0625C17.5 10.9252 16.5748 10 15.4375 10H12.0625C10.9252 10 10 10.9252 10 12.0625V15.4375C10 16.5748 10.9252 17.5 12.0625 17.5ZM15.4375 11C16.0234 11 16.5 11.4766 16.5 12.0625V15.4375C16.5 16.0234 16.0234 16.5 15.4375 16.5H12.0625C11.4766 16.5 11 16.0234 11 15.4375V12.0625C11 11.4766 11.4766 11 12.0625 11H15.4375ZM13.75 26C15.8177 26 17.5 24.3177 17.5 22.25C17.5 20.1823 15.8177 18.5 13.75 18.5C11.6823 18.5 10 20.1823 10 22.25C10 24.3177 11.6823 26 13.75 26ZM13.75 19.5C15.2663 19.5 16.5 20.7337 16.5 22.25C16.5 23.7663 15.2663 25 13.75 25C12.2337 25 11 23.7663 11 22.25C11 20.7337 12.2337 19.5 13.75 19.5ZM20.5625 26H23.9375C25.0748 26 26 25.0748 26 23.9375V20.5625C26 19.4252 25.0748 18.5 23.9375 18.5H20.5625C19.4252 18.5 18.5 19.4252 18.5 20.5625V23.9375C18.5 25.0748 19.4252 26 20.5625 26ZM23.9375 19.5C24.5234 19.5 25 19.9766 25 20.5625V23.9375C25 24.5234 24.5234 25 23.9375 25H20.5625C19.9766 25 19.5 24.5234 19.5 23.9375V20.5625C19.5 19.9766 19.9766 19.5 20.5625 19.5H23.9375Z" fill="#1B9AAA"/>
</g>
<defs>
<clipPath id="clip0_7_25">
<rect width="16" height="16" fill="white" transform="matrix(-1 0 0 1 26 10)"/>
</clipPath>
</defs>
</svg>
