<svg width="16" height="17" viewBox="0 0 16 17" fill="none" xmlns="http://www.w3.org/2000/svg">
<g id="Frame" clip-path="url(#clip0_1194_3867)">
<g id="Group">
<path id="Vector" d="M15.787 4.71299C15.503 4.42902 15.0425 4.42897 14.7585 4.71304L8.00017 11.4715L1.24153 4.71299C0.957552 4.42902 0.497042 4.42897 0.213018 4.71304C-0.0710061 4.99707 -0.0710061 5.45753 0.213018 5.74155L7.48594 13.0143C7.55347 13.0818 7.63364 13.1354 7.72188 13.1719C7.81011 13.2085 7.90468 13.2273 8.00018 13.2273C8.09568 13.2273 8.19025 13.2084 8.27848 13.1719C8.36671 13.1353 8.44687 13.0818 8.5144 13.0142L15.7869 5.7415C16.071 5.45753 16.071 4.99702 15.787 4.71299Z" fill="#AAAAAA"/>
</g>
</g>
<defs>
<clipPath id="clip0_1194_3867">
<rect width="16" height="16" fill="white" transform="translate(0 0.5)"/>
</clipPath>
</defs>
</svg>
