<svg width="17" height="17" viewBox="0 0 17 17" fill="none" xmlns="http://www.w3.org/2000/svg">
<g id="Icon">
<g id="Group">
<g id="Layer 92">
<path id="Vector" d="M14.9458 2.05403C14.7481 1.85378 14.5126 1.69479 14.253 1.58627C13.9934 1.47775 13.7148 1.42187 13.4335 1.42188C13.1521 1.42187 12.8735 1.47775 12.6139 1.58627C12.3543 1.69479 12.1188 1.85378 11.9212 2.05403L10.5612 3.43528L13.5645 6.43861L14.9245 5.07861C15.1262 4.88235 15.2868 4.648 15.3971 4.38916C15.5075 4.13031 15.5653 3.85213 15.5673 3.57076C15.5693 3.28938 15.5154 3.01042 15.4087 2.75005C15.302 2.48968 15.1446 2.2531 14.9458 2.05403ZM9.55535 4.44111L3.61243 10.384C3.55915 10.4388 3.51385 10.5008 3.47785 10.5682L1.50868 14.5419C1.45155 14.6492 1.42298 14.7694 1.42572 14.8909C1.42845 15.0124 1.4624 15.1311 1.5243 15.2357C1.58619 15.3403 1.67395 15.4272 1.77914 15.488C1.88433 15.5489 2.00341 15.5817 2.12493 15.5832C2.23286 15.5836 2.33946 15.5594 2.4366 15.5124L6.41035 13.5432C6.47774 13.5072 6.53974 13.4619 6.59451 13.4086L12.5374 7.46569L9.55535 4.44111ZM14.8749 15.5832H8.49993C8.31207 15.5832 8.1319 15.5086 7.99906 15.3757C7.86622 15.2429 7.7916 15.0627 7.7916 14.8749C7.7916 14.687 7.86622 14.5068 7.99906 14.374C8.1319 14.2412 8.31207 14.1665 8.49993 14.1665H14.8749C15.0628 14.1665 15.243 14.2412 15.3758 14.374C15.5086 14.5068 15.5833 14.687 15.5833 14.8749C15.5833 15.0627 15.5086 15.2429 15.3758 15.3757C15.243 15.5086 15.0628 15.5832 14.8749 15.5832Z" fill="white"/>
</g>
</g>
</g>
</svg>
