<svg width="20" height="20" viewBox="0 0 20 20" fill="none" xmlns="http://www.w3.org/2000/svg">
<g id="Frame">
<g id="Group">
<path id="Vector" d="M6.8231 10.0608H6.8231C6.82446 9.87278 6.89976 9.69289 7.03271 9.55999L13.6062 2.98279L13.6064 2.98264C13.9062 2.68393 14.3122 2.51621 14.7354 2.51621C15.1586 2.51621 15.5646 2.68393 15.8644 2.98264L15.8646 2.98279L17.0165 4.13535L6.8231 10.0608ZM6.8231 10.0608V10.0615M6.8231 10.0608V10.0615M6.8231 10.0615V12.4615C6.8231 12.6512 6.89847 12.8332 7.03263 12.9673C7.16679 13.1015 7.34875 13.1769 7.53848 13.1769H9.93848H9.9385M6.8231 10.0615L9.9385 13.1769M9.9385 13.1769C10.1282 13.1768 10.3101 13.1014 10.4443 12.9673M9.9385 13.1769L10.4443 12.9673M10.4443 12.9673L17.0165 6.39377M10.4443 12.9673L17.0165 6.39377M17.0165 6.39377C17.1649 6.24555 17.2827 6.06952 17.363 5.87576C17.4433 5.682 17.4847 5.47431 17.4847 5.26456C17.4847 5.05481 17.4433 4.84712 17.363 4.65336C17.2827 4.45963 17.165 4.28362 17.0166 4.13541L17.0165 6.39377ZM13.9484 4.6644L14.616 3.99681L14.6163 3.99648C14.6475 3.96497 14.69 3.94711 14.7343 3.94682C14.7785 3.94653 14.8211 3.96373 14.8527 3.99467C14.8528 3.99476 14.8529 3.99485 14.853 3.99494L16.005 5.14756L16.0053 5.1479C16.0358 5.17811 16.0532 5.21906 16.0539 5.26195C16.0536 5.30589 16.0361 5.34798 16.005 5.37908C16.005 5.37909 16.005 5.3791 16.005 5.37911L15.3371 6.04699L13.9484 4.6644ZM9.64106 11.7461H8.25387V10.3589L12.936 5.67615L14.3232 7.06393L9.64106 11.7461Z" fill="#1B9AAA" stroke="#1B9AAA" stroke-width="0.2"/>
<path id="Vector_2" d="M5.16738 1.9L5.16725 1.9C4.30108 1.90118 3.47073 2.24578 2.85825 2.85825C2.24578 3.47073 1.90118 4.30108 1.9 5.16725V5.16738L1.9 14.8326L1.9 14.8328C1.90118 15.6989 2.24578 16.5293 2.85825 17.1417C3.47073 17.7542 4.30108 18.0988 5.16725 18.1H5.16738H14.8326H14.8328C15.6989 18.0988 16.5293 17.7542 17.1417 17.1417C17.7542 16.5293 18.0988 15.6989 18.1 14.8328V14.8326V10C18.1 9.81027 18.0246 9.62831 17.8905 9.49415C17.7563 9.35999 17.5743 9.28462 17.3846 9.28462C17.1949 9.28462 17.0129 9.35999 16.8788 9.49415C16.7446 9.62831 16.6692 9.81027 16.6692 10V14.8325C16.6686 15.3194 16.4749 15.7863 16.1306 16.1306C15.7863 16.4749 15.3194 16.6686 14.8325 16.6692H5.16751C4.68057 16.6686 4.21374 16.4749 3.86942 16.1306C3.52512 15.7863 3.33141 15.3195 3.33077 14.8326C3.33077 14.8326 3.33077 14.8325 3.33077 14.8325V5.16751C3.33077 5.16748 3.33077 5.16745 3.33077 5.16742C3.33141 4.68051 3.52512 4.21372 3.86942 3.86942C4.21372 3.52512 4.68051 3.33141 5.16742 3.33077C5.16745 3.33077 5.16748 3.33077 5.16751 3.33077L10 3.33077C10.1897 3.33077 10.3717 3.2554 10.5059 3.12124C10.64 2.98708 10.7154 2.80512 10.7154 2.61538C10.7154 2.42565 10.64 2.24369 10.5059 2.10953C10.3717 1.97537 10.1897 1.9 10 1.9L5.16738 1.9Z" fill="#1B9AAA" stroke="#1B9AAA" stroke-width="0.2"/>
</g>
</g>
</svg>
