<svg width="20" height="21" viewBox="0 0 20 21" fill="none" xmlns="http://www.w3.org/2000/svg">
<g id="Frame">
<g id="Group">
<path id="Layer 2" d="M10 4C8.61553 4 7.26215 4.41054 6.11101 5.17971C4.95987 5.94888 4.06266 7.04213 3.53285 8.32121C3.00303 9.6003 2.86441 11.0078 3.13451 12.3656C3.4046 13.7235 4.07129 14.9708 5.05025 15.9497C6.02922 16.9287 7.2765 17.5954 8.63437 17.8655C9.99223 18.1356 11.3997 17.997 12.6788 17.4672C13.9579 16.9373 15.0511 16.0401 15.8203 14.889C16.5895 13.7378 17 12.3845 17 11C17 9.14348 16.2625 7.36301 14.9497 6.05025C13.637 4.7375 11.8565 4 10 4ZM12.5624 8.4846C12.7401 8.48442 12.9138 8.53696 13.0616 8.63556C13.2095 8.73417 13.3247 8.87441 13.3928 9.03854C13.4609 9.20267 13.4787 9.38331 13.4441 9.5576C13.4095 9.73189 13.3239 9.89198 13.1983 10.0176C13.0726 10.1433 12.9125 10.2288 12.7383 10.2634C12.564 10.2981 12.3833 10.2802 12.2192 10.2121C12.0551 10.144 11.9148 10.0288 11.8162 9.88097C11.7176 9.73315 11.6651 9.5594 11.6653 9.38171C11.6653 9.14378 11.7598 8.9156 11.928 8.74736C12.0963 8.57912 12.3244 8.4846 12.5624 8.4846ZM7.43763 8.4846C7.61532 8.48442 7.78907 8.53696 7.9369 8.63556C8.08472 8.73417 8.19996 8.87441 8.26804 9.03854C8.33613 9.20267 8.35399 9.38331 8.31937 9.5576C8.28475 9.73189 8.1992 9.89198 8.07355 10.0176C7.94791 10.1433 7.78781 10.2288 7.61352 10.2634C7.43924 10.2981 7.2586 10.2802 7.09447 10.2121C6.93034 10.144 6.7901 10.0288 6.69149 9.88097C6.59288 9.73315 6.54035 9.5594 6.54053 9.38171C6.54077 9.14386 6.63537 8.91582 6.80355 8.74763C6.97174 8.57944 7.19978 8.48485 7.43763 8.4846ZM13.9421 12.785C13.6483 14.4622 11.995 15.6255 10 15.6255C8.005 15.6255 6.35263 14.4622 6.05882 12.785C6.05566 12.768 6.05381 12.7507 6.05329 12.7334C6.05329 12.4912 6.34803 12.3346 6.60592 12.423C7.60066 12.7666 8.76118 12.9416 10.0009 12.9416C11.2407 12.9416 12.4012 12.7666 13.3959 12.423C13.6529 12.3309 13.9486 12.4903 13.9486 12.7334C13.9477 12.7508 13.9456 12.768 13.9421 12.785Z" fill="#1B9AAA"/>
</g>
</g>
</svg>
