<svg xmlns="http://www.w3.org/2000/svg" version="1.1" xmlns:xlink="http://www.w3.org/1999/xlink" width="512" height="512" x="0" y="0" viewBox="0 0 512 512" style="enable-background:new 0 0 512 512" xml:space="preserve" class=""><g><path d="M512 210.191V67.556c0-16.554-13.419-29.973-29.973-29.973H29.973C13.419 37.583 0 51.002 0 67.556V210.19h512v.001z" style="" fill="#1b9aaa" data-original="#00ae95" class="" opacity="1"></path><path d="M462.738 90.979H49.697c-10.893 0-19.724 8.831-19.724 19.724v132.141H482.46V110.703c.002-10.893-8.829-19.724-19.722-19.724z" style="" fill="#efedee" data-original="#efedee" class=""></path><path d="M482.462 242.844V110.703c0-2.697-.544-5.265-1.524-7.607H343.384c-31.03 0-56.674 23.506-60.064 53.646H29.973v86.103h452.489z" style="" fill="#d4d2d3" data-original="#d4d2d3" class=""></path><path d="M482.462 134.002H343.384c-16.314 0-29.538 13.224-29.538 29.538s-13.224 24.107-29.538 24.107H29.973C13.419 187.647 0 201.067 0 217.621v224.101c0 18.057 14.638 32.695 32.695 32.695h446.61c18.057 0 32.695-14.638 32.695-32.695V163.541c0-16.314-13.224-29.539-29.538-29.539z" style="" fill="#1b9aaa" data-original="#2fc8b4" class="" opacity="1"></path><path d="M147.047 328.639a7.726 7.726 0 0 1-7.726-7.726v-19.719a7.726 7.726 0 1 1 15.452 0v19.719a7.727 7.727 0 0 1-7.726 7.726zM364.953 328.639a7.726 7.726 0 0 1-7.726-7.726v-19.719a7.726 7.726 0 1 1 15.452 0v19.719a7.727 7.727 0 0 1-7.726 7.726zM256 339.164c-12.709 0-24.632-5.299-32.708-14.539a7.726 7.726 0 1 1 11.633-10.17c5.143 5.882 12.824 9.256 21.074 9.256s15.932-3.374 21.073-9.256a7.725 7.725 0 0 1 10.902-.732 7.725 7.725 0 0 1 .732 10.902c-8.074 9.24-19.996 14.539-32.706 14.539zM476.878 171.266h-127.91a7.726 7.726 0 1 1 0-15.452h127.911a7.726 7.726 0 1 1-.001 15.452z" style="" fill="#3a484a" data-original="#3a484a"></path></g></svg>