<svg width="15" height="15" viewBox="0 0 15 15" fill="none" xmlns="http://www.w3.org/2000/svg">
<path fill-rule="evenodd" clip-rule="evenodd" d="M5.78125 2.5C6.08904 2.5 6.39381 2.56062 6.67816 2.67841C6.96252 2.79619 7.22089 2.96883 7.43853 3.18647C7.65617 3.40411 7.82881 3.66248 7.94659 3.94684C8.06438 4.23119 8.125 4.53596 8.125 4.84375C8.125 5.15154 8.06438 5.45631 7.94659 5.74066C7.82881 6.02502 7.65617 6.28339 7.43853 6.50103C7.22089 6.71867 6.96252 6.89131 6.67816 7.00909C6.39381 7.12688 6.08904 7.1875 5.78125 7.1875C5.15965 7.1875 4.56351 6.94057 4.12397 6.50103C3.68443 6.06149 3.4375 5.46535 3.4375 4.84375C3.4375 4.22215 3.68443 3.62601 4.12397 3.18647C4.56351 2.74693 5.15965 2.5 5.78125 2.5ZM7.1875 4.84375C7.1875 4.47079 7.03934 4.1131 6.77562 3.84938C6.5119 3.58566 6.15421 3.4375 5.78125 3.4375C5.40829 3.4375 5.0506 3.58566 4.78688 3.84938C4.52316 4.1131 4.375 4.47079 4.375 4.84375C4.375 5.21671 4.52316 5.5744 4.78688 5.83812C5.0506 6.10184 5.40829 6.25 5.78125 6.25C6.15421 6.25 6.5119 6.10184 6.77562 5.83812C7.03934 5.5744 7.1875 5.21671 7.1875 4.84375ZM7.65625 8.125C8.27785 8.125 8.87399 8.37193 9.31353 8.81147C9.75307 9.25101 10 9.84715 10 10.4688C10 11.0904 9.75307 11.6865 9.31353 12.126C8.87399 12.5656 8.27785 12.8125 7.65625 12.8125H3.90625C3.28465 12.8125 2.68851 12.5656 2.24897 12.126C1.80943 11.6865 1.5625 11.0904 1.5625 10.4688C1.5625 9.84715 1.80943 9.25101 2.24897 8.81147C2.68851 8.37193 3.28465 8.125 3.90625 8.125H7.65625ZM9.0625 10.4688C9.0625 10.0958 8.91434 9.7381 8.65062 9.47438C8.3869 9.21066 8.02921 9.0625 7.65625 9.0625H3.90625C3.53329 9.0625 3.1756 9.21066 2.91188 9.47438C2.64816 9.7381 2.5 10.0958 2.5 10.4688C2.5 10.8417 2.64816 11.1994 2.91188 11.4631C3.1756 11.7268 3.53329 11.875 3.90625 11.875H7.65625C7.84092 11.875 8.02378 11.8386 8.1944 11.768C8.36501 11.6973 8.52004 11.5937 8.65062 11.4631C8.7812 11.3325 8.88478 11.1775 8.95546 11.0069C9.02613 10.8363 9.0625 10.6534 9.0625 10.4688Z" fill="#979C9E"/>
<path d="M8.4363 6.4933C8.53505 6.33455 8.72005 6.25018 8.9063 6.25018C9.27926 6.25018 9.63694 6.10202 9.90067 5.83829C10.1644 5.57457 10.3125 5.21689 10.3125 4.84393C10.3125 4.47097 10.1644 4.11328 9.90067 3.84956C9.63694 3.58583 9.27926 3.43768 8.9063 3.43768C8.72005 3.43768 8.53505 3.3533 8.4363 3.19455C8.43195 3.18766 8.42758 3.18078 8.42317 3.17393C8.2588 2.91455 8.34192 2.54768 8.64692 2.51455C8.97436 2.47852 9.30572 2.51192 9.61938 2.61256C9.93304 2.71321 10.222 2.87885 10.4673 3.09867C10.7126 3.31849 10.9089 3.58757 11.0432 3.88834C11.1776 4.18911 11.247 4.51482 11.247 4.84424C11.247 5.17365 11.1776 5.49937 11.0432 5.80014C10.9089 6.10091 10.7126 6.36998 10.4673 6.58981C10.222 6.80963 9.93304 6.97527 9.61938 7.07591C9.30572 7.17656 8.97436 7.20996 8.64692 7.17393C8.34192 7.14018 8.25942 6.7733 8.42317 6.51393L8.43567 6.4933H8.4363ZM10.3388 11.4483C10.3727 11.3893 10.4212 11.3401 10.4797 11.3054C10.5381 11.2707 10.6046 11.2517 10.6725 11.2502H10.7813C11.1543 11.2502 11.5119 11.102 11.7757 10.8383C12.0394 10.5746 12.1875 10.2169 12.1875 9.84393C12.1875 9.47096 12.0394 9.11328 11.7757 8.84956C11.5119 8.58583 11.1543 8.43768 10.7813 8.43768H10.6725C10.6046 8.43617 10.5381 8.41714 10.4797 8.38243C10.4212 8.34772 10.3727 8.29851 10.3388 8.23955C10.1657 7.9508 10.3532 7.50018 10.69 7.50018H10.7813C11.4029 7.50018 11.999 7.74711 12.4386 8.18664C12.8781 8.62618 13.125 9.22232 13.125 9.84393C13.125 10.4655 12.8781 11.0617 12.4386 11.5012C11.999 11.9407 11.4029 12.1877 10.7813 12.1877H10.69C10.3532 12.1877 10.165 11.7377 10.3388 11.4483Z" fill="#979C9E"/>
</svg>
