<svg id="svg2986" height="512" viewBox="0 0 6.3499999 6.3500002" width="512" xmlns="http://www.w3.org/2000/svg" xmlns:svg="http://www.w3.org/2000/svg"><g id="layer1" transform="translate(0 -290.65)"><path id="circle2847" d="m3.0413311 290.90153c-.9238121 0-1.679484.75619-1.679484 1.68 0 .56487.2833698 1.0651.7141683 1.36943-1.0028145.40202-1.71410732 1.38282-1.71410732 2.52697-.008006.3607.53717271.3607.52916671 0 0-1.21445.97920961-2.19315 2.19366461-2.19315.42393 0 .8174414.12085 1.1523843.32815.3011011.18466.5780871-.26699.2769859-.45165-.1508021-.0933-.3142096-.16605-.4826579-.22893.4158538-.30589.6878132-.79718.6878132-1.35082 0-.92381-.7541207-1.68-1.6779338-1.68zm0 .52968c.63783 0 1.1487671.51249 1.1487671 1.15032s-.5109371 1.14825-1.1487671 1.14825c-.637829 0-1.1503173-.51042-1.1503173-1.14825s.5124883-1.15032 1.1503173-1.15032zm1.6231569 4.50205v.52917c.00766.34503.5215083.34503.5291666 0v-.52917h.5296834c.3531217 0 .3531217-.52968 0-.52968h-.5296834v-.52917c.00172-.14834-.118818-.26913-.2671672-.26768-.1463263.001-.2637068.12136-.2619994.26768v.52917h-.5418273c-.3657825.0169-.3404611.54656.01266.52968z" font-variant-ligatures="normal" font-variant-position="normal" font-variant-caps="normal" font-variant-numeric="normal" font-variant-alternates="normal" font-feature-settings="normal" text-indent="0" text-align="start" text-decoration-line="none" text-decoration-style="solid" text-decoration-color="rgb(0,0,0)" text-transform="none" text-orientation="mixed" white-space="normal" shape-padding="0" isolation="auto" mix-blend-mode="normal" solid-color="rgb(0,0,0)" solid-opacity="1" vector-effect="none" paint-order="stroke fill markers"/></g></svg>