<svg width="14" height="14" viewBox="0 0 14 14" fill="none" xmlns="http://www.w3.org/2000/svg">
<g id="Frame" clip-path="url(#clip0_988_140678)">
<g id="Group">
<g id="Group_2">
<path id="Vector" d="M0.405912 11.9072L0.391912 11.9212C0.202912 11.5082 0.0839121 11.0392 0.0349121 10.5212C0.0839121 11.0322 0.216912 11.4942 0.405912 11.9072ZM4.89991 5.86618C5.34176 5.86618 5.76552 5.69065 6.07795 5.37822C6.39039 5.06578 6.56591 4.64203 6.56591 4.20018C6.56591 3.75833 6.39039 3.33458 6.07795 3.02214C5.76552 2.7097 5.34176 2.53418 4.89991 2.53418C4.45806 2.53418 4.03431 2.7097 3.72187 3.02214C3.40944 3.33458 3.23391 3.75833 3.23391 4.20018C3.23391 4.64203 3.40944 5.06578 3.72187 5.37822C4.03431 5.69065 4.45806 5.86618 4.89991 5.86618Z" fill="#1B9AAA"/>
<path id="Vector_2" d="M9.933 0H4.067C1.519 0 0 1.519 0 4.067V9.933C0 10.696 0.133 11.361 0.392 11.921C0.994 13.251 2.282 14 4.067 14H9.933C12.481 14 14 12.481 14 9.933V4.067C14 1.519 12.481 0 9.933 0ZM12.859 7.35C12.313 6.881 11.431 6.881 10.885 7.35L7.973 9.849C7.427 10.318 6.545 10.318 5.999 9.849L5.761 9.653C5.264 9.219 4.473 9.177 3.913 9.555L1.295 11.312C1.141 10.92 1.05 10.465 1.05 9.933V4.067C1.05 2.093 2.093 1.05 4.067 1.05H9.933C11.907 1.05 12.95 2.093 12.95 4.067V7.427L12.859 7.35Z" fill="#1B9AAA"/>
</g>
</g>
</g>
<defs>
<clipPath id="clip0_988_140678">
<rect width="14" height="14" fill="white"/>
</clipPath>
</defs>
</svg>
