<svg width="20" height="14" viewBox="0 0 20 14" fill="none" xmlns="http://www.w3.org/2000/svg">
<path d="M4.375 7C5.75375 7 6.875 5.87875 6.875 4.5C6.875 3.12125 5.75375 2 4.375 2C2.99625 2 1.875 3.12125 1.875 4.5C1.875 5.87875 2.99625 7 4.375 7ZM4.375 3.25C5.06437 3.25 5.625 3.81063 5.625 4.5C5.625 5.18937 5.06437 5.75 4.375 5.75C3.68563 5.75 3.125 5.18937 3.125 4.5C3.125 3.81063 3.68563 3.25 4.375 3.25ZM2.5 9.5H3.1875C3.35326 9.5 3.51223 9.43415 3.62944 9.31694C3.74665 9.19973 3.8125 9.04076 3.8125 8.875C3.8125 8.70924 3.74665 8.55027 3.62944 8.43306C3.51223 8.31585 3.35326 8.25 3.1875 8.25H2.5C1.46625 8.25 0.625 9.09125 0.625 10.125V12.625C0.625 12.7908 0.690848 12.9497 0.808058 13.0669C0.925268 13.1842 1.08424 13.25 1.25 13.25H3.125C3.29076 13.25 3.44973 13.1842 3.56694 13.0669C3.68415 12.9497 3.75 12.7908 3.75 12.625C3.75 12.4592 3.68415 12.3003 3.56694 12.1831C3.44973 12.0658 3.29076 12 3.125 12H1.875V10.125C1.875 9.95924 1.94085 9.80027 2.05806 9.68306C2.17527 9.56585 2.33424 9.5 2.5 9.5ZM10 6.375C11.7231 6.375 13.125 4.97312 13.125 3.25C13.125 1.52688 11.7231 0.125 10 0.125C8.27688 0.125 6.875 1.52688 6.875 3.25C6.875 4.97312 8.27688 6.375 10 6.375ZM10 1.375C11.0337 1.375 11.875 2.21625 11.875 3.25C11.875 4.28375 11.0337 5.125 10 5.125C8.96625 5.125 8.125 4.28375 8.125 3.25C8.125 2.21625 8.96625 1.375 10 1.375ZM18.75 4.5H16.875V2.625C16.875 2.45924 16.8092 2.30027 16.6919 2.18306C16.5747 2.06585 16.4158 2 16.25 2C16.0842 2 15.9253 2.06585 15.8081 2.18306C15.6908 2.30027 15.625 2.45924 15.625 2.625V4.5H13.75C13.5842 4.5 13.4253 4.56585 13.3081 4.68306C13.1908 4.80027 13.125 4.95924 13.125 5.125C13.125 5.29076 13.1908 5.44973 13.3081 5.56694C13.4253 5.68415 13.5842 5.75 13.75 5.75H15.625V7.625C15.625 7.79076 15.6908 7.94973 15.8081 8.06694C15.9253 8.18415 16.0842 8.25 16.25 8.25C16.4158 8.25 16.5747 8.18415 16.6919 8.06694C16.8092 7.94973 16.875 7.79076 16.875 7.625V5.75H18.75C18.9158 5.75 19.0747 5.68415 19.1919 5.56694C19.3092 5.44973 19.375 5.29076 19.375 5.125C19.375 4.95924 19.3092 4.80027 19.1919 4.68306C19.0747 4.56585 18.9158 4.5 18.75 4.5ZM13.75 7.625H6.25C5.21625 7.625 4.375 8.46625 4.375 9.5V13.25C4.375 13.4158 4.44085 13.5747 4.55806 13.6919C4.67527 13.8092 4.83424 13.875 5 13.875H15C15.1658 13.875 15.3247 13.8092 15.4419 13.6919C15.5592 13.5747 15.625 13.4158 15.625 13.25V9.5C15.625 8.46625 14.7837 7.625 13.75 7.625ZM14.375 12.625H5.625V9.5C5.625 9.33424 5.69085 9.17527 5.80806 9.05806C5.92527 8.94085 6.08424 8.875 6.25 8.875H13.75C13.9158 8.875 14.0747 8.94085 14.1919 9.05806C14.3092 9.17527 14.375 9.33424 14.375 9.5V12.625Z" fill="white"/>
</svg>
