<svg width="15" height="15" viewBox="0 0 15 15" fill="none" xmlns="http://www.w3.org/2000/svg">
<path fill-rule="evenodd" clip-rule="evenodd" d="M7.5 2.5C7.19221 2.5 6.88744 2.56062 6.60309 2.67841C6.31873 2.79619 6.06036 2.96883 5.84272 3.18647C5.62508 3.40411 5.45244 3.66248 5.33466 3.94684C5.21687 4.23119 5.15625 4.53596 5.15625 4.84375C5.15625 5.15154 5.21687 5.45631 5.33466 5.74066C5.45244 6.02502 5.62508 6.28339 5.84272 6.50103C6.06036 6.71867 6.31873 6.89131 6.60309 7.00909C6.88744 7.12688 7.19221 7.1875 7.5 7.1875C8.1216 7.1875 8.71774 6.94057 9.15728 6.50103C9.59682 6.06149 9.84375 5.46535 9.84375 4.84375C9.84375 4.22215 9.59682 3.62601 9.15728 3.18647C8.71774 2.74693 8.1216 2.5 7.5 2.5ZM6.09375 4.84375C6.09375 4.47079 6.24191 4.1131 6.50563 3.84938C6.76935 3.58566 7.12704 3.4375 7.5 3.4375C7.87296 3.4375 8.23065 3.58566 8.49437 3.84938C8.75809 4.1131 8.90625 4.47079 8.90625 4.84375C8.90625 5.21671 8.75809 5.5744 8.49437 5.83812C8.23065 6.10184 7.87296 6.25 7.5 6.25C7.12704 6.25 6.76935 6.10184 6.50563 5.83812C6.24191 5.5744 6.09375 5.21671 6.09375 4.84375ZM5.625 8.125C5.0034 8.125 4.40726 8.37193 3.96772 8.81147C3.52818 9.25101 3.28125 9.84715 3.28125 10.4688C3.28125 11.0904 3.52818 11.6865 3.96772 12.126C4.40726 12.5656 5.0034 12.8125 5.625 12.8125H9.375C9.9966 12.8125 10.5927 12.5656 11.0323 12.126C11.4718 11.6865 11.7188 11.0904 11.7188 10.4688C11.7188 9.84715 11.4718 9.25101 11.0323 8.81147C10.5927 8.37193 9.9966 8.125 9.375 8.125H5.625ZM4.21875 10.4688C4.21875 10.0958 4.36691 9.7381 4.63063 9.47438C4.89435 9.21066 5.25204 9.0625 5.625 9.0625H9.375C9.74796 9.0625 10.1056 9.21066 10.3694 9.47438C10.6331 9.7381 10.7812 10.0958 10.7812 10.4688C10.7812 10.8417 10.6331 11.1994 10.3694 11.4631C10.1056 11.7268 9.74796 11.875 9.375 11.875H5.625C5.44033 11.875 5.25747 11.8386 5.08685 11.768C4.91624 11.6973 4.76121 11.5937 4.63063 11.4631C4.50005 11.3325 4.39646 11.1775 4.32579 11.0069C4.25512 10.8363 4.21875 10.6534 4.21875 10.4688Z" fill="#979C9E"/>
<path d="M4.845 6.49295C4.74625 6.3342 4.56125 6.24983 4.375 6.24983C4.00204 6.24983 3.64435 6.10167 3.38063 5.83794C3.11691 5.57422 2.96875 5.21654 2.96875 4.84357C2.96875 4.47061 3.11691 4.11293 3.38063 3.84921C3.64435 3.58548 4.00204 3.43732 4.375 3.43732C4.56125 3.43732 4.74625 3.35295 4.845 3.1942L4.85812 3.17357C5.0225 2.9142 4.93937 2.54732 4.63438 2.5142C4.30694 2.47817 3.97558 2.51157 3.66192 2.61221C3.34826 2.71286 3.05933 2.8785 2.81399 3.09832C2.56866 3.31814 2.37241 3.58722 2.23806 3.88799C2.10371 4.18876 2.03427 4.51447 2.03427 4.84389C2.03427 5.1733 2.10371 5.49902 2.23806 5.79979C2.37241 6.10056 2.56866 6.36963 2.81399 6.58945C3.05933 6.80928 3.34826 6.97492 3.66192 7.07556C3.97558 7.17621 4.30694 7.20961 4.63438 7.17357C4.93937 7.13982 5.02187 6.77295 4.85812 6.51358L4.845 6.49295ZM2.9425 11.448C2.90858 11.389 2.86005 11.3399 2.80159 11.3051C2.74313 11.2704 2.67672 11.2514 2.60875 11.2498H2.5C2.12704 11.2498 1.76935 11.1017 1.50563 10.8379C1.24191 10.5742 1.09375 10.2165 1.09375 9.84358C1.09375 9.47061 1.24191 9.11293 1.50563 8.84921C1.76935 8.58548 2.12704 8.43733 2.5 8.43733H2.60875C2.74625 8.43733 2.87125 8.35733 2.9425 8.2392C3.11563 7.95045 2.92812 7.49983 2.59125 7.49983H2.5C1.8784 7.49983 1.28226 7.74676 0.842718 8.18629C0.40318 8.62583 0.15625 9.22197 0.15625 9.84358C0.15625 10.4652 0.40318 11.0613 0.842718 11.5009C1.28226 11.9404 1.8784 12.1873 2.5 12.1873H2.59125C2.92812 12.1873 3.11625 11.7373 2.9425 11.448ZM10.1419 6.51358C9.9775 6.77295 10.0606 7.13983 10.3656 7.17295C10.6931 7.20898 11.0244 7.17558 11.3381 7.07494C11.6517 6.97429 11.9407 6.80865 12.186 6.58883C12.4313 6.36901 12.6276 6.09993 12.7619 5.79916C12.8963 5.49839 12.9657 5.17268 12.9657 4.84326C12.9657 4.51385 12.8963 4.18813 12.7619 3.88736C12.6276 3.58659 12.4313 3.31752 12.186 3.0977C11.9407 2.87787 11.6517 2.71224 11.3381 2.61159C11.0244 2.51094 10.6931 2.47754 10.3656 2.51357C10.0606 2.54732 9.97812 2.9142 10.1419 3.17357L10.1544 3.1942C10.2537 3.35295 10.4388 3.43732 10.625 3.43732C10.998 3.43732 11.3556 3.58548 11.6194 3.84921C11.8831 4.11293 12.0312 4.47061 12.0312 4.84357C12.0312 5.21654 11.8831 5.57422 11.6194 5.83794C11.3556 6.10167 10.998 6.24983 10.625 6.24983C10.4388 6.24983 10.2537 6.3342 10.155 6.49295C10.1506 6.49984 10.1463 6.50671 10.1419 6.51358ZM12.0575 11.448C11.8844 11.7367 12.0719 12.1873 12.4088 12.1873H12.5C13.1216 12.1873 13.7177 11.9404 14.1573 11.5009C14.5968 11.0613 14.8438 10.4652 14.8438 9.84358C14.8438 9.22197 14.5968 8.62583 14.1573 8.18629C13.7177 7.74676 13.1216 7.49983 12.5 7.49983H12.4088C12.0719 7.49983 11.8837 7.94982 12.0575 8.2392C12.1281 8.35795 12.2537 8.43733 12.3913 8.43733H12.5C12.873 8.43733 13.2306 8.58548 13.4944 8.84921C13.7581 9.11293 13.9062 9.47061 13.9062 9.84358C13.9062 10.2165 13.7581 10.5742 13.4944 10.8379C13.2306 11.1017 12.873 11.2498 12.5 11.2498H12.3913C12.3233 11.2513 12.2568 11.2704 12.1984 11.3051C12.1399 11.3398 12.0914 11.389 12.0575 11.448Z" fill="#979C9E"/>
</svg>
