<svg width="16" height="16" viewBox="0 0 16 16" fill="none" xmlns="http://www.w3.org/2000/svg">
<g id="Icon">
<g id="Group">
<g id="Group_2">
<path id="Vector" fill-rule="evenodd" clip-rule="evenodd" d="M7.99992 2.35859C6.50374 2.35859 5.06885 2.95294 4.01089 4.01089C2.95294 5.06885 2.35859 6.50374 2.35859 7.99992C2.35859 9.49609 2.95294 10.931 4.01089 11.9889C5.06885 13.0469 6.50374 13.6413 7.99992 13.6413C9.49609 13.6413 10.931 13.0469 11.9889 11.9889C13.0469 10.931 13.6413 9.49609 13.6413 7.99992C13.6413 6.50374 13.0469 5.06885 11.9889 4.01089C10.931 2.95294 9.49609 2.35859 7.99992 2.35859ZM1.33325 7.99992C1.33325 4.31792 4.31792 1.33325 7.99992 1.33325C11.6819 1.33325 14.6666 4.31792 14.6666 7.99992C14.6666 11.6819 11.6819 14.6666 7.99992 14.6666C4.31792 14.6666 1.33325 11.6819 1.33325 7.99992Z" fill="#555555"/>
<path id="Vector_2" fill-rule="evenodd" clip-rule="evenodd" d="M7.99995 4.0686C8.13598 4.0686 8.26644 4.12259 8.36269 4.21872C8.45894 4.31484 8.5131 4.44524 8.51328 4.58127V7.99994C8.51311 8.13602 8.45892 8.26646 8.36261 8.3626L6.31128 10.4133C6.26442 10.4642 6.20774 10.5051 6.14466 10.5336C6.08158 10.5621 6.01339 10.5775 5.94419 10.5789C5.87499 10.5804 5.80622 10.5678 5.742 10.542C5.67779 10.5162 5.61946 10.4776 5.57052 10.4287C5.52158 10.3798 5.48304 10.3214 5.45722 10.2572C5.4314 10.193 5.41884 10.1242 5.42028 10.055C5.42172 9.98583 5.43714 9.91764 5.46561 9.85456C5.49408 9.79147 5.53501 9.7348 5.58595 9.68794L7.48728 7.7866V4.57994C7.48798 4.44437 7.54229 4.31459 7.63834 4.21891C7.73438 4.12324 7.86438 4.06878 7.99995 4.0686Z" fill="#555555"/>
</g>
</g>
</g>
</svg>
