<svg width="30" height="30" viewBox="0 0 30 30" fill="none" xmlns="http://www.w3.org/2000/svg">
<path d="M22.6842 26.7167H19.2987C18.6311 26.7167 17.9908 26.4515 17.5188 25.9794C17.0467 25.5074 16.7816 24.8671 16.7816 24.1996V21.1413C16.7816 20.8075 16.649 20.4874 16.4129 20.2514C16.1769 20.0153 15.8568 19.8827 15.523 19.8827C15.1892 19.8827 14.8691 20.0153 14.6331 20.2514C14.397 20.4874 14.2645 20.8075 14.2645 21.1413V24.1996C14.2645 24.8671 13.9993 25.5074 13.5272 25.9794C13.0552 26.4515 12.4149 26.7167 11.7473 26.7167H8.36185C7.69427 26.7167 7.05403 26.4515 6.58199 25.9794C6.10994 25.5074 5.84474 24.8671 5.84474 24.1996V17.1013H5.45459C4.9545 17.1047 4.46543 16.9544 4.05352 16.6708C3.64161 16.3872 3.32673 15.9839 3.15145 15.5156C2.98227 15.0502 2.95413 14.5452 3.07054 14.0639C3.18695 13.5826 3.44274 13.1463 3.80589 12.8097L13.8743 3.60967C14.3311 3.21634 14.9139 3 15.5167 3C16.1195 3 16.7023 3.21634 17.1591 3.60967L27.2905 12.8348C27.6281 13.1833 27.8579 13.6219 27.9521 14.0979C28.0463 14.5739 28.0009 15.067 27.8214 15.5178C27.6419 15.9686 27.3359 16.3579 26.9402 16.6389C26.5446 16.9198 26.0762 17.0804 25.5914 17.1013H25.1509V24.1996C25.151 24.8585 24.8928 25.4912 24.4316 25.9619C23.9703 26.4325 23.343 26.7035 22.6842 26.7167ZM15.523 17.3656C16.5244 17.3656 17.4847 17.7634 18.1928 18.4715C18.9009 19.1796 19.2987 20.1399 19.2987 21.1413V24.1996H22.6842V15.8428C22.6842 15.509 22.8168 15.1889 23.0528 14.9529C23.2888 14.7168 23.6089 14.5842 23.9427 14.5842H25.5914L15.523 5.47233L5.45459 14.6849L7.11588 14.5842C7.44967 14.5842 7.76979 14.7168 8.00581 14.9529C8.24184 15.1889 8.37443 15.509 8.37443 15.8428V24.1996H11.7473V21.1413C11.7473 20.1399 12.1451 19.1796 12.8532 18.4715C13.5613 17.7634 14.5216 17.3656 15.523 17.3656Z" fill="#C4C4C4"/>
</svg>
