<svg width="18" height="19" viewBox="0 0 18 19" fill="none" xmlns="http://www.w3.org/2000/svg">
<g id="Private">
<g id="Group">
<path id="Vector" d="M13.708 7.29022V5.73529C13.708 3.13932 11.596 1.02734 9.00002 1.02734C6.40404 1.02734 4.29207 3.13932 4.29207 5.73529V7.29022C3.19143 7.33437 2.30957 8.24309 2.30957 9.35435V15.9064C2.30957 17.0458 3.23646 17.9727 4.37581 17.9727H13.6242C14.7635 17.9727 15.6904 17.0457 15.6904 15.9064V9.35435C15.6905 8.24309 14.8086 7.33437 13.708 7.29022ZM9.00002 2.15234C10.9757 2.15234 12.583 3.75965 12.583 5.73529V7.28807H5.41707V5.73529C5.41707 3.75965 7.02437 2.15234 9.00002 2.15234ZM14.5655 15.9064C14.5655 16.4254 14.1432 16.8477 13.6242 16.8477H4.37584C3.85683 16.8477 3.43461 16.4254 3.43461 15.9064V9.35435C3.43461 8.83534 3.85687 8.41311 4.37584 8.41311H13.6242C14.1432 8.41311 14.5654 8.83534 14.5654 9.35435V15.9064H14.5655ZM9.56252 11.3998V13.8609C9.56252 14.1716 9.31069 14.4234 9.00002 14.4234C8.68934 14.4234 8.43752 14.1716 8.43752 13.8609V11.3998C8.43752 11.0892 8.68934 10.8373 9.00002 10.8373C9.31069 10.8373 9.56252 11.0892 9.56252 11.3998Z" fill="white"/>
</g>
</g>
</svg>
