<svg width="16" height="16" viewBox="0 0 16 16" fill="none" xmlns="http://www.w3.org/2000/svg">
<g id="Icon">
<g id="Group">
<g id="Group_2">
<path id="Vector" fill-rule="evenodd" clip-rule="evenodd" d="M6.16675 2.66675C6.49505 2.66675 6.82014 2.73141 7.12346 2.85705C7.42677 2.98269 7.70237 3.16683 7.93451 3.39898C8.16666 3.63113 8.35081 3.90673 8.47645 4.21004C8.60208 4.51335 8.66675 4.83844 8.66675 5.16675C8.66675 5.49505 8.60208 5.82014 8.47645 6.12346C8.35081 6.42677 8.16666 6.70237 7.93451 6.93451C7.70237 7.16666 7.42677 7.35081 7.12346 7.47645C6.82014 7.60208 6.49505 7.66675 6.16675 7.66675C5.50371 7.66675 4.86782 7.40336 4.39898 6.93451C3.93014 6.46567 3.66675 5.82979 3.66675 5.16675C3.66675 4.50371 3.93014 3.86782 4.39898 3.39898C4.86782 2.93014 5.50371 2.66675 6.16675 2.66675ZM7.66675 5.16675C7.66675 4.76892 7.50871 4.38739 7.22741 4.10609C6.9461 3.82478 6.56457 3.66675 6.16675 3.66675C5.76892 3.66675 5.38739 3.82478 5.10609 4.10609C4.82478 4.38739 4.66675 4.76892 4.66675 5.16675C4.66675 5.56457 4.82478 5.9461 5.10609 6.22741C5.38739 6.50871 5.76892 6.66675 6.16675 6.66675C6.56457 6.66675 6.9461 6.50871 7.22741 6.22741C7.50871 5.9461 7.66675 5.56457 7.66675 5.16675ZM8.16675 8.66675C8.82979 8.66675 9.46567 8.93014 9.93451 9.39898C10.4034 9.86782 10.6667 10.5037 10.6667 11.1667C10.6667 11.8298 10.4034 12.4657 9.93451 12.9345C9.46567 13.4034 8.82979 13.6667 8.16675 13.6667H4.16675C3.50371 13.6667 2.86782 13.4034 2.39898 12.9345C1.93014 12.4657 1.66675 11.8298 1.66675 11.1667C1.66675 10.5037 1.93014 9.86782 2.39898 9.39898C2.86782 8.93014 3.50371 8.66675 4.16675 8.66675H8.16675ZM9.66675 11.1667C9.66675 10.7689 9.50871 10.3874 9.22741 10.1061C8.9461 9.82478 8.56457 9.66675 8.16675 9.66675H4.16675C3.76892 9.66675 3.38739 9.82478 3.10609 10.1061C2.82478 10.3874 2.66675 10.7689 2.66675 11.1667C2.66675 11.5646 2.82478 11.9461 3.10609 12.2274C3.38739 12.5087 3.76892 12.6667 4.16675 12.6667H8.16675C8.36373 12.6667 8.55878 12.6279 8.74077 12.5526C8.92276 12.4772 9.08812 12.3667 9.22741 12.2274C9.3667 12.0881 9.47719 11.9228 9.55257 11.7408C9.62795 11.5588 9.66675 11.3637 9.66675 11.1667Z" fill="#555555"/>
<path id="Vector_2" d="M8.99885 6.92599C9.10418 6.75666 9.30151 6.66666 9.50018 6.66666C9.898 6.66666 10.2795 6.50862 10.5608 6.22732C10.8421 5.94601 11.0002 5.56448 11.0002 5.16666C11.0002 4.76883 10.8421 4.3873 10.5608 4.106C10.2795 3.82469 9.898 3.66666 9.50018 3.66666C9.30151 3.66666 9.10418 3.57666 8.99885 3.40733C8.99421 3.39997 8.98955 3.39264 8.98485 3.38533C8.80951 3.10866 8.89818 2.71733 9.22351 2.68199C9.57278 2.64356 9.92623 2.67918 10.2608 2.78654C10.5954 2.8939 10.9036 3.07058 11.1653 3.30505C11.4269 3.53953 11.6363 3.82654 11.7796 4.14737C11.9229 4.46819 11.997 4.81562 11.997 5.16699C11.997 5.51837 11.9229 5.8658 11.7796 6.18662C11.6363 6.50744 11.4269 6.79445 11.1653 7.02893C10.9036 7.26341 10.5954 7.44009 10.2608 7.54745C9.92623 7.6548 9.57278 7.69043 9.22351 7.65199C8.89818 7.61599 8.81018 7.22466 8.98485 6.94799L8.99818 6.92599H8.99885ZM11.0282 12.2113C11.0643 12.1484 11.1161 12.0959 11.1784 12.0589C11.2408 12.0219 11.3117 12.0016 11.3842 12H11.5002C11.898 12 12.2795 11.842 12.5608 11.5607C12.8421 11.2793 13.0002 10.8978 13.0002 10.5C13.0002 10.1022 12.8421 9.72064 12.5608 9.43933C12.2795 9.15803 11.898 8.99999 11.5002 8.99999H11.3842C11.3117 8.99839 11.2408 8.97809 11.1784 8.94107C11.1161 8.90404 11.0643 8.85155 11.0282 8.78866C10.8435 8.48066 11.0435 7.99999 11.4028 7.99999H11.5002C12.1632 7.99999 12.7991 8.26338 13.2679 8.73223C13.7368 9.20107 14.0002 9.83695 14.0002 10.5C14.0002 11.163 13.7368 11.7989 13.2679 12.2678C12.7991 12.7366 12.1632 13 11.5002 13H11.4028C11.0435 13 10.8428 12.52 11.0282 12.2113Z" fill="#555555"/>
</g>
</g>
</g>
</svg>
