<svg width="20" height="21" viewBox="0 0 20 21" fill="none" xmlns="http://www.w3.org/2000/svg">
<g id="Frame">
<g id="Group">
<path id="Vector" d="M14.9709 11.2364C14.9709 10.9634 14.7497 10.7422 14.4768 10.7422C14.2038 10.7422 13.9826 10.9634 13.9826 11.2364C13.9823 13.1678 12.4163 14.7332 10.4849 14.7329C8.55395 14.7327 6.98864 13.1673 6.98835 11.2364C6.98835 10.9634 6.7671 10.7422 6.49418 10.7422C6.22125 10.7422 6 10.9634 6 11.2364C6.00261 13.5212 7.72057 15.4398 9.9913 15.6938V17.0116H8.19416C7.92124 17.0116 7.69998 17.2329 7.69998 17.5058C7.69998 17.7787 7.92124 18 8.19416 18H12.7768C13.0497 18 13.271 17.7787 13.271 17.5058C13.271 17.2329 13.0497 17.0116 12.7768 17.0116H10.9797V15.6938C13.2504 15.4398 14.9683 13.5212 14.9709 11.2364Z" fill="#1B9AAA"/>
<path id="Vector_2" d="M10.4854 4C8.96335 4 7.72949 5.23383 7.72949 6.75587V11.2183C7.73129 12.7395 8.96409 13.9723 10.4854 13.9741C12.0066 13.9723 13.2394 12.7395 13.2412 11.2183V6.75587C13.2412 5.23383 12.0074 4 10.4854 4Z" fill="#1B9AAA"/>
</g>
</g>
</svg>
