<svg width="26" height="26" viewBox="0 0 26 26" fill="none" xmlns="http://www.w3.org/2000/svg">
<path d="M13 25.5C15.4723 25.5 17.889 24.7669 19.9446 23.3934C22.0002 22.0199 23.6024 20.0676 24.5485 17.7836C25.4946 15.4995 25.7421 12.9861 25.2598 10.5614C24.7775 8.13661 23.587 5.90933 21.8388 4.16117C20.0907 2.41301 17.8634 1.2225 15.4386 0.74019C13.0139 0.257874 10.5005 0.505416 8.21646 1.45151C5.93238 2.39761 3.98015 3.99976 2.60663 6.05538C1.23311 8.11099 0.5 10.5277 0.5 13C0.5 16.3152 1.81696 19.4946 4.16117 21.8388C5.3219 22.9996 6.69989 23.9203 8.21646 24.5485C9.73303 25.1767 11.3585 25.5 13 25.5ZM13 3.00001C14.9778 3.00001 16.9112 3.5865 18.5557 4.68531C20.2002 5.78412 21.4819 7.34591 22.2388 9.17317C22.9957 11.0004 23.1937 13.0111 22.8079 14.9509C22.422 16.8907 21.4696 18.6725 20.0711 20.0711C18.6725 21.4696 16.8907 22.422 14.9509 22.8079C13.0111 23.1937 11.0004 22.9957 9.17317 22.2388C7.3459 21.4819 5.78412 20.2002 4.6853 18.5557C3.58649 16.9112 3 14.9778 3 13C3 10.3478 4.05357 7.8043 5.92893 5.92894C7.8043 4.05357 10.3478 3.00001 13 3.00001Z" fill="#C4C4C4"/>
<path d="M8.93749 18.9377C9.12398 18.934 9.30906 18.9046 9.48749 18.8502L15.0625 17.1377C15.5534 16.9911 16 16.7247 16.3623 16.3625C16.7245 16.0002 16.9909 15.5536 17.1375 15.0627L18.85 9.4877C18.9528 9.16256 18.9645 8.81542 18.8836 8.48413C18.8026 8.15285 18.6323 7.85013 18.3912 7.60899C18.1501 7.36785 17.8474 7.19755 17.5161 7.11664C17.1848 7.03574 16.8376 7.04735 16.5125 7.1502L10.9375 8.8627C10.4466 9.00928 9.99995 9.27569 9.63772 9.63793C9.27548 10.0002 9.00907 10.4468 8.86249 10.9377L7.14999 16.5127C7.05111 16.8379 7.04188 17.1838 7.12329 17.5138C7.20469 17.8439 7.37371 18.1458 7.61249 18.3877C7.96606 18.736 8.44119 18.9332 8.93749 18.9377ZM11.25 11.6627C11.28 11.5656 11.3333 11.4773 11.4052 11.4054C11.477 11.3335 11.5654 11.2802 11.6625 11.2502L16.1125 9.8877L14.75 14.3377C14.72 14.4348 14.6667 14.5232 14.5948 14.595C14.5229 14.6669 14.4346 14.7202 14.3375 14.7502L9.88749 16.1127L11.25 11.6627Z" fill="#C4C4C4"/>
</svg>
