<svg xmlns="http://www.w3.org/2000/svg" version="1.1" xmlns:xlink="http://www.w3.org/1999/xlink" xmlns:svgjs="http://svgjs.com/svgjs" width="512" height="512" x="0" y="0" viewBox="0 0 32 32" style="enable-background:new 0 0 512 512" xml:space="preserve" class=""><g><path d="m28.1 12.7-8.8-8.8c-.4-.4-1-.4-1.4 0l-3.2 3.2c-.5.5-.3 1.1 0 1.4l.7.7-3 3c-1.5-.3-5.6-1-7.8 1.2-.4.4-.4 1 0 1.4l5.7 5.7L4 26.8c-.4.4-.4 1 0 1.4s1.1.3 1.4 0l6.3-6.3 5.7 5.7c.6.5 1.2.3 1.4 0 2.2-2.2 1.5-6.3 1.2-7.8l3-3 .7.7c.4.4 1 .4 1.4 0l3.2-3.2c.2-.6.2-1.2-.2-1.6zm-3.9 2.5-.7-.7c-.4-.4-1-.4-1.4 0L18 18.7c-.3.3-.4.6-.3 1 .3 1.1.8 3.8 0 5.6l-11-11c1.7-.8 4.5-.3 5.6 0 .3.1.7 0 1-.3l4.1-4.1c.6-.6.3-1.1 0-1.4l-.7-.7L18.6 6l7.4 7.4z" fill="#1b9aaa" data-original="#000000" opacity="1"></path></g></svg>