<svg width="20" height="20" viewBox="0 0 20 20" fill="none" xmlns="http://www.w3.org/2000/svg">
<path d="M8.15506 9.14404C8.03058 9.14432 7.90959 9.10297 7.81131 9.02658C7.71304 8.95019 7.64311 8.84314 7.61266 8.72245C7.58221 8.60176 7.59298 8.47435 7.64325 8.36048C7.69353 8.24661 7.78042 8.15281 7.89013 8.094L11.7971 5.57865C11.927 5.51459 12.0767 5.50345 12.2146 5.54756C12.3525 5.59168 12.4679 5.68762 12.5365 5.81516C12.6051 5.9427 12.6215 6.09189 12.5823 6.23129C12.5431 6.37069 12.4513 6.48942 12.3262 6.56246L8.4185 9.07781C8.33745 9.12116 8.24697 9.14391 8.15506 9.14404Z" fill="#979C9E"/>
<path d="M12.4774 14.3014C12.3854 14.3014 12.2949 14.2783 12.214 14.2344L8.30629 12.6128C8.18124 12.5398 8.08943 12.4211 8.0502 12.2817C8.01097 12.1423 8.02738 11.9931 8.09597 11.8655C8.16456 11.738 8.27999 11.6421 8.41792 11.5979C8.55585 11.5538 8.70552 11.565 8.8354 11.629L12.7431 13.2514C12.8523 13.3106 12.9386 13.4045 12.9884 13.5183C13.0382 13.6321 13.0487 13.7592 13.0183 13.8796C12.9878 14 12.9181 14.1068 12.8202 14.1832C12.7222 14.2596 12.6016 14.3012 12.4774 14.3014ZM14.8373 8.32558C14.2117 8.32558 13.6002 8.14009 13.0801 7.79256C12.56 7.44502 12.1546 6.95106 11.9152 6.37314C11.6758 5.79522 11.6132 5.15928 11.7352 4.54576C11.8573 3.93224 12.1585 3.36869 12.6008 2.92636C13.0432 2.48404 13.6067 2.18281 14.2202 2.06077C14.8338 1.93874 15.4697 2.00137 16.0476 2.24075C16.6255 2.48014 17.1195 2.88552 17.467 3.40564C17.8146 3.92576 18.0001 4.53725 18.0001 5.16279C17.9991 6.00131 17.6655 6.80521 17.0726 7.39814C16.4797 7.99106 15.6758 8.3246 14.8373 8.32558ZM14.8373 3.11628C14.4325 3.11628 14.0368 3.23631 13.7003 3.46118C13.3637 3.68605 13.1014 4.00567 12.9465 4.37963C12.7916 4.75358 12.7511 5.16506 12.8301 5.56205C12.909 5.95903 13.104 6.32369 13.3902 6.60989C13.6764 6.8961 14.041 7.09102 14.438 7.16998C14.835 7.24895 15.2465 7.20842 15.6204 7.05352C15.9944 6.89863 16.314 6.63632 16.5389 6.29977C16.7637 5.96323 16.8838 5.56755 16.8838 5.16279C16.8834 4.62014 16.6676 4.09984 16.2839 3.71613C15.9002 3.33242 15.3799 3.11667 14.8373 3.11628Z" fill="#979C9E"/>
<path d="M14.8371 17.9999C14.2116 17.9999 13.6001 17.8144 13.08 17.4669C12.5598 17.1193 12.1545 16.6254 11.9151 16.0475C11.6757 15.4695 11.6131 14.8336 11.7351 14.2201C11.8571 13.6066 12.1584 13.043 12.6007 12.6007C13.043 12.1584 13.6066 11.8571 14.2201 11.7351C14.8336 11.6131 15.4695 11.6757 16.0475 11.9151C16.6254 12.1545 17.1193 12.5598 17.4669 13.08C17.8144 13.6001 17.9999 14.2116 17.9999 14.8371C17.9989 15.6756 17.6654 16.4795 17.0725 17.0725C16.4795 17.6654 15.6756 17.9989 14.8371 17.9999ZM14.8371 12.7906C14.4323 12.7906 14.0367 12.9106 13.7001 13.1355C13.3636 13.3604 13.1013 13.68 12.9464 14.0539C12.7915 14.4279 12.751 14.8394 12.8299 15.2364C12.9089 15.6333 13.1038 15.998 13.39 16.2842C13.6762 16.5704 14.0409 16.7653 14.4379 16.8443C14.8348 16.9233 15.2463 16.8827 15.6203 16.7278C15.9942 16.5729 16.3138 16.3106 16.5387 15.9741C16.7636 15.6375 16.8836 15.2419 16.8836 14.8371C16.8832 14.2945 16.6675 13.7742 16.2838 13.3904C15.9001 13.0067 15.3798 12.791 14.8371 12.7906Z" fill="#979C9E"/>
<path d="M5.53489 13.5351C4.83575 13.5351 4.15232 13.3278 3.57101 12.9394C2.9897 12.5509 2.53663 11.9989 2.26908 11.353C2.00153 10.707 1.93153 9.9963 2.06792 9.3106C2.20432 8.6249 2.54098 7.99504 3.03535 7.50068C3.52971 7.00631 4.15956 6.66965 4.84526 6.53326C5.53096 6.39686 6.24171 6.46686 6.88763 6.73441C7.53354 7.00196 8.08562 7.45503 8.47403 8.03634C8.86245 8.61765 9.06977 9.30108 9.06977 10.0002C9.06859 10.9374 8.69578 11.8358 8.03312 12.4985C7.37046 13.1611 6.47203 13.5339 5.53489 13.5351ZM5.53489 7.58161C5.05653 7.58161 4.58892 7.72346 4.19118 7.98922C3.79344 8.25498 3.48344 8.63272 3.30039 9.07466C3.11733 9.5166 3.06943 10.0029 3.16275 10.4721C3.25608 10.9412 3.48643 11.3722 3.82467 11.7104C4.16292 12.0487 4.59388 12.279 5.06304 12.3723C5.5322 12.4657 6.0185 12.4178 6.46044 12.2347C6.90239 12.0517 7.28012 11.7417 7.54588 11.3439C7.81164 10.9462 7.95349 10.4786 7.95349 10.0002C7.9527 9.35901 7.69763 8.74428 7.24423 8.29088C6.79082 7.83747 6.1761 7.5824 5.53489 7.58161Z" fill="#979C9E"/>
</svg>
