<svg width="20" height="20" viewBox="0 0 20 20" fill="none" xmlns="http://www.w3.org/2000/svg">
<path d="M6.00024 6.625C6.00024 6.45924 6.06609 6.30027 6.1833 6.18306C6.30051 6.06585 6.45948 6 6.62524 6H13.2919C13.4577 6 13.6166 6.06585 13.7339 6.18306C13.8511 6.30027 13.9169 6.45924 13.9169 6.625C13.9169 6.79076 13.8511 6.94973 13.7339 7.06694C13.6166 7.18415 13.4577 7.25 13.2919 7.25H6.62524C6.45948 7.25 6.30051 7.18415 6.1833 7.06694C6.06609 6.94973 6.00024 6.79076 6.00024 6.625ZM6.00024 10.375C6.00024 10.2092 6.06609 10.0503 6.1833 9.93306C6.30051 9.81585 6.45948 9.75 6.62524 9.75H13.2919C13.4577 9.75 13.6166 9.81585 13.7339 9.93306C13.8511 10.0503 13.9169 10.2092 13.9169 10.375C13.9169 10.5408 13.8511 10.6997 13.7339 10.8169C13.6166 10.9342 13.4577 11 13.2919 11H6.62524C6.45948 11 6.30051 10.9342 6.1833 10.8169C6.06609 10.6997 6.00024 10.5408 6.00024 10.375Z" fill="#979C9E"/>
<path fill-rule="evenodd" clip-rule="evenodd" d="M8.26358 1H11.6536C12.7961 1 13.6927 1 14.4127 1.05833C15.1461 1.11917 15.7519 1.2425 16.3002 1.5225C17.2019 1.98191 17.935 2.71499 18.3944 3.61667C18.6744 4.165 18.7977 4.77083 18.8577 5.50417C18.9169 6.22417 18.9169 7.12083 18.9169 8.26333V9.40083C18.9169 10.6917 18.9169 11.4783 18.7236 12.14C18.4976 12.9107 18.0816 13.6122 17.5137 14.1801C16.9458 14.748 16.2443 15.164 15.4736 15.39C14.8119 15.5833 14.0252 15.5833 12.7344 15.5833H12.1044C11.382 15.5882 10.6783 15.8138 10.0877 16.23L10.0461 16.2592L7.87108 17.8133C6.61691 18.7083 4.96858 17.415 5.54191 15.985C5.55981 15.9405 5.56649 15.8923 5.56138 15.8446C5.55627 15.797 5.53952 15.7513 5.5126 15.7116C5.48568 15.6719 5.44943 15.6395 5.40702 15.6171C5.36461 15.5947 5.31736 15.5831 5.26941 15.5833H4.76858C3.76915 15.5833 2.81066 15.1863 2.10396 14.4796C1.39726 13.7729 1.00024 12.8144 1.00024 11.815V8.26333C1.00024 7.12083 1.00024 6.22417 1.05858 5.50417C1.11941 4.77083 1.24274 4.165 1.52274 3.61667C1.98215 2.71499 2.71523 1.98191 3.61691 1.5225C4.16524 1.2425 4.77108 1.11917 5.50441 1.05917C6.22441 1 7.12108 1 8.26358 1ZM5.60608 2.305C4.95024 2.35833 4.52691 2.46167 4.18441 2.63583C3.51771 2.97544 2.97568 3.51746 2.63608 4.18417C2.46108 4.52667 2.35858 4.95 2.30524 5.60583C2.25108 6.26917 2.25024 7.11417 2.25024 8.29167V11.815C2.25024 12.4829 2.51557 13.1235 2.98785 13.5957C3.2217 13.8296 3.49931 14.0151 3.80485 14.1416C4.11039 14.2682 4.43787 14.3333 4.76858 14.3333H5.26941C5.52164 14.3331 5.77008 14.3948 5.99295 14.5128C6.21583 14.6309 6.40635 14.8019 6.54781 15.0107C6.68928 15.2195 6.77737 15.4599 6.80438 15.7106C6.8314 15.9614 6.7965 16.215 6.70274 16.4492C6.59358 16.7208 6.90608 16.9658 7.14441 16.7958L9.36691 15.2083C10.1663 14.6449 11.1189 14.3396 12.0969 14.3333H12.6119C14.0636 14.3333 14.6552 14.3267 15.1219 14.19C15.6914 14.023 16.2098 13.7155 16.6294 13.2958C17.0491 12.8762 17.3565 12.3578 17.5236 11.7883C17.6602 11.3217 17.6669 10.73 17.6669 9.27833V8.29167C17.6669 7.11417 17.6669 6.26917 17.6119 5.60583C17.5586 4.95 17.4552 4.52667 17.2811 4.18417C16.9417 3.51759 16.4 2.97558 15.7336 2.63583C15.3902 2.46083 14.9669 2.35833 14.3111 2.305C13.6477 2.25083 12.8027 2.25 11.6252 2.25H8.29191C7.11441 2.25 6.26941 2.25 5.60608 2.305Z" fill="#979C9E"/>
</svg>
