<svg width="15" height="15" viewBox="0 0 15 15" fill="none" xmlns="http://www.w3.org/2000/svg">
<g clip-path="url(#clip0_988_131240)">
<path d="M2.38078 6.17684C2.38078 3.37741 4.43807 1.0585 7.12324 0.649502C6.84228 0.606765 6.55848 0.585353 6.27428 0.58545C3.18624 0.58545 0.682861 3.08883 0.682861 6.17687C0.682861 9.26492 3.18624 11.7683 6.27428 11.7683C6.5629 11.7683 6.84642 11.7464 7.12324 11.7042C4.4381 11.2952 2.38078 8.9763 2.38078 6.17684Z" fill="#D2F4F8"/>
<path d="M6.18265 12.3538C2.77668 12.3538 0.0057373 9.58288 0.0057373 6.17691C0.0057373 2.77094 2.77668 0 6.18265 0C9.58862 0 12.3596 2.77094 12.3596 6.17691C12.3596 9.58288 9.58862 12.3538 6.18265 12.3538ZM6.18265 1.17098C3.42236 1.17098 1.17672 3.41662 1.17672 6.17691C1.17672 8.9372 3.42236 11.1828 6.18265 11.1828C8.94294 11.1828 11.1886 8.9372 11.1886 6.17691C11.1886 3.41662 8.94294 1.17098 6.18265 1.17098Z" fill="#1B9AAA"/>
<path d="M14.4088 15C14.3319 15.0001 14.2557 14.985 14.1847 14.9556C14.1136 14.9262 14.0491 14.883 13.9948 14.8286L11.3747 12.2085C11.1461 11.9798 11.1461 11.6091 11.3747 11.3805C11.6034 11.1518 11.9741 11.1518 12.2028 11.3805L14.8228 14.0005C15.0514 14.2292 15.0514 14.5999 14.8228 14.8286C14.7685 14.883 14.704 14.9262 14.6329 14.9556C14.5619 14.985 14.4857 15.0001 14.4088 15Z" fill="#979C9E"/>
</g>
<defs>
<clipPath id="clip0_988_131240">
<rect width="15" height="15" fill="white"/>
</clipPath>
</defs>
</svg>
