<svg width="26" height="26" viewBox="0 0 26 26" fill="none" xmlns="http://www.w3.org/2000/svg">
<path d="M9.875 19.25C8.0208 19.25 6.20824 18.7002 4.66653 17.67C3.12482 16.6399 1.92321 15.1757 1.21363 13.4627C0.504062 11.7496 0.318406 9.8646 0.680142 8.04603C1.04188 6.22746 1.93476 4.557 3.24588 3.24588C4.557 1.93476 6.22746 1.04188 8.04603 0.680142C9.8646 0.318406 11.7496 0.504062 13.4627 1.21363C15.1757 1.92321 16.6399 3.12482 17.67 4.66653C18.7002 6.20824 19.25 8.0208 19.25 9.875C19.25 12.3614 18.2623 14.746 16.5041 16.5041C14.746 18.2623 12.3614 19.25 9.875 19.25ZM9.875 3C8.51526 3 7.18605 3.40322 6.05546 4.15865C4.92487 4.91409 4.04368 5.98781 3.52333 7.24406C3.00298 8.5003 2.86683 9.88263 3.13211 11.2162C3.39738 12.5499 4.05216 13.7749 5.01365 14.7364C5.97513 15.6978 7.20014 16.3526 8.53376 16.6179C9.86738 16.8832 11.2497 16.747 12.506 16.2267C13.7622 15.7063 14.8359 14.8251 15.5914 13.6945C16.3468 12.564 16.75 11.2348 16.75 9.875C16.7467 8.05266 16.0213 6.30589 14.7327 5.01729C13.4441 3.7287 11.6974 3.00331 9.875 3ZM24.25 25.5C24.0855 25.501 23.9224 25.4694 23.7701 25.4072C23.6178 25.345 23.4793 25.2534 23.3625 25.1375L19.6125 21.3875C19.496 21.271 19.4035 21.1326 19.3404 20.9803C19.2774 20.828 19.2449 20.6648 19.2449 20.5C19.2449 20.3352 19.2774 20.172 19.3404 20.0197C19.4035 19.8674 19.496 19.7291 19.6125 19.6125C19.7291 19.496 19.8674 19.4035 20.0197 19.3404C20.172 19.2774 20.3352 19.2449 20.5 19.2449C20.6648 19.2449 20.828 19.2774 20.9803 19.3404C21.1326 19.4035 21.271 19.496 21.3875 19.6125L25.1375 23.3625C25.2547 23.4787 25.3477 23.617 25.4111 23.7693C25.4746 23.9216 25.5073 24.085 25.5073 24.25C25.5073 24.415 25.4746 24.5784 25.4111 24.7307C25.3477 24.883 25.2547 25.0213 25.1375 25.1375C25.0207 25.2534 24.8822 25.345 24.7299 25.4072C24.5776 25.4694 24.4145 25.501 24.25 25.5Z" fill="#C4C4C4"/>
<path d="M18 19.2502C17.8355 19.2512 17.6724 19.2197 17.5201 19.1574C17.3678 19.0952 17.2293 19.0036 17.1125 18.8877L14.6125 16.3877C14.3771 16.1524 14.2449 15.8331 14.2449 15.5002C14.2449 15.1674 14.3771 14.8481 14.6125 14.6127C14.8479 14.3774 15.1671 14.2451 15.5 14.2451C15.8329 14.2451 16.1521 14.3774 16.3875 14.6127L18.8875 17.1127C19.0046 17.2289 19.0976 17.3672 19.1611 17.5195C19.2246 17.6718 19.2572 17.8352 19.2572 18.0002C19.2572 18.1652 19.2246 18.3286 19.1611 18.481C19.0976 18.6333 19.0046 18.7715 18.8875 18.8877C18.7707 19.0036 18.6322 19.0952 18.4799 19.1574C18.3276 19.2197 18.1645 19.2512 18 19.2502Z" fill="#C4C4C4"/>
</svg>
