<svg width="35" height="35" viewBox="0 0 35 35" fill="none" xmlns="http://www.w3.org/2000/svg">
<circle cx="17.5" cy="17.5" r="17.5" fill="#F3F5F6"/>
<path fill-rule="evenodd" clip-rule="evenodd" d="M15.1875 12.3818C16.5414 12.3818 17.6805 13.3527 17.9426 14.6318H25.3125C25.4617 14.6318 25.6048 14.6911 25.7102 14.7966C25.8157 14.9021 25.875 15.0452 25.875 15.1943C25.875 15.3435 25.8157 15.4866 25.7102 15.5921C25.6048 15.6976 25.4617 15.7568 25.3125 15.7568H17.9426C17.6805 17.0365 16.542 18.0068 15.1875 18.0068C13.833 18.0068 12.6945 17.0365 12.4324 15.7568H10.6875C10.5383 15.7568 10.3952 15.6976 10.2898 15.5921C10.1843 15.4866 10.125 15.3435 10.125 15.1943C10.125 15.0452 10.1843 14.9021 10.2898 14.7966C10.3952 14.6911 10.5383 14.6318 10.6875 14.6318H12.4324C12.6945 13.3527 13.833 12.3818 15.1875 12.3818ZM15.1875 13.5068C14.2487 13.5068 13.5 14.2555 13.5 15.1943C13.5 16.1331 14.2487 16.8818 15.1875 16.8818C16.1263 16.8818 16.875 16.1331 16.875 15.1943C16.875 14.2555 16.1263 13.5068 15.1875 13.5068ZM20.8125 18.0068C22.1664 18.0068 23.3055 18.9777 23.5676 20.2568H25.3125C25.4617 20.2568 25.6048 20.3161 25.7102 20.4216C25.8157 20.5271 25.875 20.6702 25.875 20.8193C25.875 20.9685 25.8157 21.1116 25.7102 21.2171C25.6048 21.3226 25.4617 21.3818 25.3125 21.3818H23.5676C23.3055 22.6615 22.167 23.6318 20.8125 23.6318C19.458 23.6318 18.3195 22.6615 18.0574 21.3818H10.6875C10.5383 21.3818 10.3952 21.3226 10.2898 21.2171C10.1843 21.1116 10.125 20.9685 10.125 20.8193C10.125 20.6702 10.1843 20.5271 10.2898 20.4216C10.3952 20.3161 10.5383 20.2568 10.6875 20.2568H18.0574C18.3195 18.9777 19.458 18.0068 20.8125 18.0068ZM20.8125 19.1318C19.8737 19.1318 19.125 19.8805 19.125 20.8193C19.125 21.7581 19.8737 22.5068 20.8125 22.5068C21.7513 22.5068 22.5 21.7581 22.5 20.8193C22.5 19.8805 21.7513 19.1318 20.8125 19.1318Z" fill="#1B9AAA"/>
</svg>
