<svg id="svg2986" height="512" viewBox="0 0 6.3499999 6.3500002" width="512" xmlns="http://www.w3.org/2000/svg" xmlns:svg="http://www.w3.org/2000/svg"><g id="layer1" transform="translate(0 -290.65)"><path id="circle2865" d="m3.0384816 290.9074c-.923814 0-1.6774188.75619-1.6774188 1.68 0 .56487.2823872 1.0651.7126182 1.36943-1.0030513.40191-1.71462431 1.38264-1.71462431 2.52697a.2646485.2646485 0 0 0 .52916666 0c0-1.21445.97869375-2.19315 2.19314725-2.19315.4239313 0 .8174434.12085 1.1523847.32815a.26558815.26558815 0 1 0 .2795694-.45165c-.1509263-.0934-.3147616-.16654-.4836901-.22945.4161631-.30591.6888454-.79685.6888454-1.3503 0-.92381-.7561872-1.68-1.6799984-1.68zm0 .52968c.6378284 0 1.1503157.51249 1.1503157 1.15032s-.5124873 1.14825-1.1503157 1.14825c-.6378311 0-1.1482521-.51042-1.1482521-1.14825s.510421-1.15032 1.1482521-1.15032zm1.3575374 3.4401a.26460982.26460982 0 0 0 -.1839674.45527l.473874.47387-.473874.47336a.26460982.26460982 0 1 0 .3731048.37517l.4749059-.47439.47439.47439a.26528612.26528612 0 0 0 .3751712-.37517l-.4743899-.47336.4743899-.47387a.26460982.26460982 0 0 0 -.1932701-.45527.26460982.26460982 0 0 0 -.1819011.0801l-.47439.47439-.4749059-.47439a.26460982.26460982 0 0 0 -.1891374-.0801z" font-variant-ligatures="normal" font-variant-position="normal" font-variant-caps="normal" font-variant-numeric="normal" font-variant-alternates="normal" font-feature-settings="normal" text-indent="0" text-align="start" text-decoration-line="none" text-decoration-style="solid" text-decoration-color="rgb(0,0,0)" text-transform="none" text-orientation="mixed" white-space="normal" shape-padding="0" isolation="auto" mix-blend-mode="normal" solid-color="rgb(0,0,0)" solid-opacity="1" vector-effect="none" paint-order="stroke fill markers"/></g></svg>