<svg width="18" height="18" viewBox="0 0 18 18" fill="none" xmlns="http://www.w3.org/2000/svg">
<g id="Icon" clip-path="url(#clip0_988_134384)">
<g id="Group">
<path id="Layer 17" d="M13.5 0.75C12.5054 0.75 11.5516 1.14509 10.8483 1.84835C10.1451 2.55161 9.75 3.50544 9.75 4.5V6.75H3C2.40326 6.75 1.83097 6.98705 1.40901 7.40901C0.987053 7.83097 0.75 8.40326 0.75 9V15C0.75 15.5967 0.987053 16.169 1.40901 16.591C1.83097 17.0129 2.40326 17.25 3 17.25H12C12.5967 17.25 13.169 17.0129 13.591 16.591C14.0129 16.169 14.25 15.5967 14.25 15V9C14.25 8.40326 14.0129 7.83097 13.591 7.40901C13.169 6.98705 12.5967 6.75 12 6.75H11.25V4.5C11.25 3.90326 11.4871 3.33097 11.909 2.90901C12.331 2.48705 12.9033 2.25 13.5 2.25C14.0967 2.25 14.669 2.48705 15.091 2.90901C15.5129 3.33097 15.75 3.90326 15.75 4.5C15.75 4.69891 15.829 4.88968 15.9697 5.03033C16.1103 5.17098 16.3011 5.25 16.5 5.25C16.6989 5.25 16.8897 5.17098 17.0303 5.03033C17.171 4.88968 17.25 4.69891 17.25 4.5C17.25 4.00754 17.153 3.51991 16.9645 3.06494C16.7761 2.60997 16.4999 2.19657 16.1517 1.84835C15.8034 1.50013 15.39 1.22391 14.9351 1.03545C14.4801 0.846997 13.9925 0.75 13.5 0.75ZM12.75 9V15C12.75 15.1989 12.671 15.3897 12.5303 15.5303C12.3897 15.671 12.1989 15.75 12 15.75H3C2.80109 15.75 2.61032 15.671 2.46967 15.5303C2.32902 15.3897 2.25 15.1989 2.25 15V9C2.25 8.80109 2.32902 8.61032 2.46967 8.46967C2.61032 8.32902 2.80109 8.25 3 8.25H12C12.1989 8.25 12.3897 8.32902 12.5303 8.46967C12.671 8.61032 12.75 8.80109 12.75 9ZM8.25 12.75V13.5C8.25 13.6989 8.17098 13.8897 8.03033 14.0303C7.88968 14.171 7.69891 14.25 7.5 14.25C7.30109 14.25 7.11032 14.171 6.96967 14.0303C6.82902 13.8897 6.75 13.6989 6.75 13.5V12.75C6.75 12.5511 6.82902 12.3603 6.96967 12.2197C7.11032 12.079 7.30109 12 7.5 12C7.69891 12 7.88968 12.079 8.03033 12.2197C8.17098 12.3603 8.25 12.5511 8.25 12.75Z" fill="white"/>
</g>
</g>
<defs>
<clipPath id="clip0_988_134384">
<rect width="18" height="18" fill="white"/>
</clipPath>
</defs>
</svg>
