<svg width="16" height="16" viewBox="0 0 16 16" fill="none" xmlns="http://www.w3.org/2000/svg">
<circle cx="8" cy="8" r="7.5" stroke="#979C9E"/>
<path d="M7.99663 3.11334C7.88103 3.11544 7.77079 3.16242 7.68922 3.24436L5.46854 5.46672C5.42155 5.50645 5.3833 5.5555 5.35622 5.61075C5.32914 5.66601 5.3138 5.72629 5.31119 5.78777C5.30858 5.84925 5.31875 5.91061 5.34104 5.96797C5.36334 6.02532 5.39729 6.07743 5.44075 6.12101C5.48421 6.16458 5.53622 6.19867 5.59352 6.22112C5.65082 6.24357 5.71215 6.2539 5.77364 6.25145C5.83513 6.24901 5.89544 6.23384 5.95077 6.2069C6.0061 6.17997 6.05525 6.14185 6.0951 6.09496L7.55484 4.63523L7.5582 12.4412C7.5582 12.5593 7.6051 12.6725 7.68858 12.756C7.77206 12.8395 7.88529 12.8864 8.00335 12.8864C8.12141 12.8864 8.23463 12.8395 8.31811 12.756C8.40159 12.6725 8.44849 12.5593 8.44849 12.4412L8.44345 4.62683L9.90991 6.09496C9.99424 6.17338 10.1057 6.21606 10.2208 6.21404C10.336 6.21202 10.4458 6.16547 10.5274 6.08415C10.6089 6.00283 10.6558 5.89308 10.6581 5.77795C10.6604 5.66282 10.618 5.55127 10.5398 5.46672L8.31915 3.24436C8.27695 3.20197 8.22664 3.16853 8.17123 3.14601C8.11581 3.1235 8.05643 3.11239 7.99663 3.11334Z" fill="#979C9E"/>
</svg>
