<svg width="20" height="20" viewBox="0 0 20 20" fill="none" xmlns="http://www.w3.org/2000/svg">
<g id="Frame">
<g id="Group">
<g id="Layer 2">
<path id="Vector" d="M12.0834 15.8337H3.75008C3.19755 15.8337 2.66764 15.6142 2.27694 15.2235C1.88624 14.8328 1.66675 14.3029 1.66675 13.7503V6.25033C1.66675 5.69779 1.88624 5.16789 2.27694 4.77719C2.66764 4.38649 3.19755 4.16699 3.75008 4.16699H12.0834C12.6359 4.16699 13.1659 4.38649 13.5566 4.77719C13.9473 5.16789 14.1667 5.69779 14.1667 6.25033V13.7503C14.1667 14.3029 13.9473 14.8328 13.5566 15.2235C13.1659 15.6142 12.6359 15.8337 12.0834 15.8337ZM3.75008 5.83366C3.63957 5.83366 3.53359 5.87756 3.45545 5.9557C3.37731 6.03384 3.33341 6.13982 3.33341 6.25033V13.7503C3.33341 13.8608 3.37731 13.9668 3.45545 14.045C3.53359 14.1231 3.63957 14.167 3.75008 14.167H12.0834C12.1939 14.167 12.2999 14.1231 12.378 14.045C12.4562 13.9668 12.5001 13.8608 12.5001 13.7503V6.25033C12.5001 6.13982 12.4562 6.03384 12.378 5.9557C12.2999 5.87756 12.1939 5.83366 12.0834 5.83366H3.75008Z" fill="#1B9AAA"/>
<path id="Vector_2" d="M17.0833 14.3257C16.8892 14.3271 16.6976 14.2813 16.525 14.1924L12.9583 12.409C12.8209 12.3398 12.7053 12.2338 12.6244 12.1029C12.5435 11.972 12.5005 11.8213 12.5 11.6674V8.33404C12.5005 8.18015 12.5435 8.02939 12.6244 7.89848C12.7053 7.76757 12.8209 7.66162 12.9583 7.59237L16.525 5.83404C16.7108 5.72964 16.9203 5.6748 17.1333 5.6748C17.3464 5.6748 17.5559 5.72964 17.7417 5.83404C17.9257 5.9499 18.0768 6.1112 18.1804 6.3024C18.2841 6.4936 18.3367 6.70825 18.3333 6.9257V13.0757C18.3367 13.2932 18.2841 13.5078 18.1804 13.699C18.0768 13.8902 17.9257 14.0515 17.7417 14.1674C17.541 14.2797 17.3132 14.3345 17.0833 14.3257ZM14.1667 11.1507L16.6667 12.4007V7.6007L14.1667 8.8507V11.1507Z" fill="#1B9AAA"/>
</g>
</g>
</g>
</svg>
